<svg xmlns="http://www.w3.org/2000/svg" width="161.152" height="161.154" viewBox="0 0 161.152 161.154">
  <g id="doubleCircle" transform="translate(-0.749 -0.579)">
    <path id="Shape" d="M80.008,90.151,47.175,86.28a48.942,48.942,0,0,0,.337-5.7A47.568,47.568,0,0,0,0,33.061V0A80.666,80.666,0,0,1,80.574,80.577,82.227,82.227,0,0,1,80.008,90.151Z" transform="translate(81.327 0.579)" fill="#f6d959"/>
    <path id="Shape-2" data-name="Shape" d="M14.9,127.271A80.587,80.587,0,0,1,80.577,0V33.061A47.525,47.525,0,0,0,41.832,108.1Z" transform="translate(0.749 0.579)" fill="#ed8080"/>
    <path id="Shape-3" data-name="Shape" d="M65.678,74.889A80.774,80.774,0,0,1,0,41.006L26.933,21.83a47.658,47.658,0,0,0,38.744,20A47.493,47.493,0,0,0,112.856,0l32.83,3.9A80.567,80.567,0,0,1,65.678,74.889Z" transform="translate(15.648 86.844)" fill="#f6d959"/>
  </g>
</svg>
