<svg xmlns="http://www.w3.org/2000/svg" width="485.433" height="393.76" viewBox="0 0 485.433 393.76">
  <g id="people" transform="translate(-64.637 -3176.063)">
    <g id="Glow" transform="matrix(0.966, 0.259, -0.259, 0.966, 111.307, 3284.742)">
      <g id="glow-2" data-name="glow" transform="translate(437.619 0.222) rotate(45)" fill="none" stroke-linecap="round" stroke-linejoin="round" stroke-miterlimit="10">
        <path d="M0,16.125q0-.265.009-.528A16.142,16.142,0,0,0,15.6.009Q15.86,0,16.125,0t.528.008A16.086,16.086,0,0,0,32.219,15.574q.008.263.008.528t-.009.528A16.142,16.142,0,0,0,16.63,32.218q-.263.009-.528.009t-.528-.008A16.086,16.086,0,0,0,.008,16.653Q0,16.39,0,16.125Z" stroke="none"/>
        <path d="M 16.10572052001953 25.57771492004395 C 17.94027709960938 21.34479713439941 21.34480094909668 17.94027519226074 25.57771873474121 16.1057186126709 C 21.34844398498535 14.2766580581665 17.95010185241699 10.87831878662109 16.12104415893555 6.649041652679443 C 14.28649139404297 10.88196277618408 10.88196468353271 14.28649044036865 6.649043560028076 16.12104415893555 C 10.87831974029541 17.95009994506836 14.27665996551514 21.34844017028809 16.10572052001953 25.57771492004395 M 16.09082412719727 32.22676086425781 C 15.91781520843506 32.22676086425781 15.74544429779053 32.22404098510742 15.57375812530518 32.2186279296875 C 15.30659866333008 23.73957824707031 8.487188339233398 16.92015838623047 0.008128524757921696 16.65300941467285 C 0.002598524792119861 16.47760772705078 -0.0001214752192026936 16.30149841308594 8.524780241714325e-06 16.12472915649414 C 0.0001285247853957117 15.94795894622803 0.003098524874076247 15.77184867858887 0.008868524804711342 15.59643840789795 C 8.48831844329834 15.31734848022461 15.31734848022461 8.488308906555176 15.59643840789795 0.008868524804711342 C 15.77183818817139 0.003098524874076247 15.94794845581055 0.0001285247853957117 16.12472915649414 8.524780241714325e-06 C 16.12875366210938 5.565185347222723e-06 16.1328010559082 4.110717782168649e-06 16.1368236541748 4.110717782168649e-06 C 16.30953979492188 4.110717782168649e-06 16.48160171508789 0.002724421443417668 16.65300941467285 0.008128524757921696 C 16.92015838623047 8.487188339233398 23.73957824707031 15.30659866333008 32.2186393737793 15.57375812530518 C 32.22415924072266 15.74914836883545 32.22687911987305 15.92525863647461 32.22675704956055 16.10202789306641 C 32.22662734985352 16.27880859375 32.22365951538086 16.45491790771484 32.21788787841797 16.63031768798828 C 23.73844909667969 16.9094181060791 16.9094181060791 23.73844909667969 16.63031768798828 32.21788787841797 C 16.45491790771484 32.22366714477539 16.27880859375 32.22662734985352 16.10202789306641 32.22675704956055 C 16.09829521179199 32.22676086425781 16.09455680847168 32.22676086425781 16.09082412719727 32.22676086425781 Z" stroke="none" fill="#35deff"/>
      </g>
      <path id="glow-3" data-name="glow" d="M0,14.928q0-.246.008-.489A14.929,14.929,0,0,0,14.439.008Q14.682,0,14.928,0t.489.008A14.929,14.929,0,0,0,29.848,14.439q.008.244.008.489t-.008.489A14.929,14.929,0,0,0,15.417,29.848q-.244.008-.489.008t-.489-.008A14.929,14.929,0,0,0,.008,15.417Q0,15.174,0,14.928Z" transform="translate(0.713 153.124)" fill="#35deff"/>
      <g id="glow-4" data-name="glow" transform="translate(444.866 138.081)" fill="none" stroke-miterlimit="10">
        <path d="M14.928,29.856c-.3,0-.605-.009-.905-.027a14.922,14.922,0,0,0-14-14c-.018-.305-.027-.609-.027-.9s.009-.609.027-.905a14.921,14.921,0,0,0,14-14c.315-.018.619-.027.905-.027.306,0,.61.009.9.027a14.921,14.921,0,0,0,14,14c.018.319.027.624.027.905,0,.3-.009.606-.027.9a14.921,14.921,0,0,0-14,14C15.524,29.847,15.22,29.856,14.928,29.856Z" stroke="none"/>
        <path d="M 14.92768383026123 24.65864372253418 C 16.6429557800293 20.19420051574707 20.19395637512207 16.64350509643555 24.65821075439453 14.9278507232666 C 20.19442176818848 13.21237564086914 16.64332580566406 9.661279678344727 14.9278507232666 5.197491645812988 C 13.21219635009766 9.661745071411133 9.66150951385498 13.21274280548096 5.197064876556396 14.92801475524902 C 9.661862373352051 16.64357376098633 13.21212100982666 20.19385528564453 14.92768383026123 24.65864372253418 M 14.92830085754395 29.8557014465332 C 14.62772083282471 29.8557014465332 14.32308101654053 29.84666061401367 14.02282047271729 29.82882118225098 C 13.57252025604248 22.29971122741699 7.55595064163208 16.28316116333008 0.02683072350919247 15.83286094665527 C 0.008710723370313644 15.52741050720215 7.232666234813223e-07 15.22339057922363 7.232666234813223e-07 14.92830085754395 C 7.232666234813223e-07 14.62396049499512 0.00908072292804718 14.31934070587158 0.02700072340667248 14.02290058135986 C 7.556370735168457 13.57290077209473 13.57290077209473 7.556370735168457 14.02290058135986 0.02700072340667248 C 14.33762073516846 0.008770722895860672 14.641921043396 7.232666234813223e-07 14.92830085754395 7.232666234813223e-07 C 15.23383045196533 7.232666234813223e-07 15.53815078735352 0.00908072292804718 15.83280086517334 0.02700072340667248 C 16.28280067443848 7.556370735168457 22.29933166503906 13.57290077209473 29.82870101928711 14.02290058135986 C 29.84693145751953 14.3421802520752 29.8557014465332 14.64648056030273 29.8557014465332 14.92830085754395 C 29.8557014465332 15.23025035858154 29.84662055969238 15.53457069396973 29.82870101928711 15.83280086517334 C 22.29933166503906 16.28280067443848 16.28280067443848 22.29933166503906 15.83280086517334 29.82870101928711 C 15.52356052398682 29.84693145751953 15.21956062316895 29.8557014465332 14.92830085754395 29.8557014465332 Z" stroke="none" fill="#ffc700"/>
      </g>
      <circle id="glow-5" data-name="glow" cx="7.464" cy="7.464" r="7.464" transform="translate(405.989 101.061)" fill="#35deff"/>
      <circle id="glow-6" data-name="glow" cx="6.785" cy="6.785" r="6.785" transform="translate(71.726 102.272)" fill="#ffc700"/>
      <circle id="glow-7" data-name="glow" cx="4.071" cy="4.071" r="4.071" transform="translate(376.826 38.011)" fill="#ffc700"/>
    </g>
    <g id="Group" transform="translate(115 3176)">
      <g id="Group_4" data-name="Group 4">
        <g id="Group-2" data-name="Group" transform="translate(1.357)">
          <path id="Shape" d="M21.974,0H3.1A3.14,3.14,0,0,0,0,3.173V26.125a2.393,2.393,0,0,0,2.467,2.309h.05a2.392,2.392,0,0,0,2.466-2.309V7.989h0a1.738,1.738,0,0,1,.378-.045c.059,0,.113.009.171.014V54.652a3.13,3.13,0,0,0,3.091,3.166h.062a3.13,3.13,0,0,0,3.093-3.166V27.019h0a1.337,1.337,0,0,1,1.525,0c0,.028,0,.055,0,.084V54.652a3.13,3.13,0,0,0,3.091,3.165h.064a3.13,3.13,0,0,0,3.094-3.165V27.105c0-.012,0-.022,0-.035h0V7.958c.058-.005.112-.014.173-.014a1.759,1.759,0,0,1,.379.045h0V26.125a2.392,2.392,0,0,0,2.466,2.309h.05a2.391,2.391,0,0,0,2.464-2.309V3.172A3.141,3.141,0,0,0,21.974,0Z" transform="translate(0.07 12.522)" fill="#d3d3d3"/>
          <path id="Shape-2" data-name="Shape" d="M11.1,5.678a5.614,5.614,0,0,1-5.551,5.678A5.613,5.613,0,0,1,0,5.678,5.615,5.615,0,0,1,5.549,0,5.617,5.617,0,0,1,11.1,5.678Z" transform="translate(7.061 0.063)" fill="#d3d3d3"/>
        </g>
        <g id="Group-3" data-name="Group" transform="translate(0 85.461)">
          <path id="Shape-3" data-name="Shape" d="M29.131,21.584,23.905,2.978A4.006,4.006,0,0,0,20.083,0H9.126A4.006,4.006,0,0,0,5.3,2.978L.079,21.584a2.033,2.033,0,0,0,1.683,2.6l.508.051a1.961,1.961,0,0,0,2.087-1.488L8.216,8.09a.806.806,0,0,1,.508-.2L2.157,35.15H8.775V55.117A2.689,2.689,0,0,0,11.209,58h.048a2.687,2.687,0,0,0,2.433-2.886V35.15h1.826V55.117A2.689,2.689,0,0,0,17.952,58H18a2.687,2.687,0,0,0,2.433-2.886V35.15h6.618L20.487,7.887a.811.811,0,0,1,.509.2l3.856,14.654a1.966,1.966,0,0,0,2.089,1.488l.509-.051A2.033,2.033,0,0,0,29.131,21.584Z" transform="translate(0.36 12.035)" fill="#d3d3d3"/>
          <ellipse id="Oval" cx="5.227" cy="5.427" rx="5.227" ry="5.427" transform="translate(9.738 0.235)" fill="#d3d3d3"/>
        </g>
        <g id="Group-4" data-name="Group" transform="translate(6.783 54.261)">
          <path id="Shape-4" data-name="Shape" d="M5.716,12.12V0H0V12.12a3.154,3.154,0,0,0,2.829,3.4h.057A3.153,3.153,0,0,0,5.716,12.12Z" transform="translate(0.41 0.546)" fill="#ed8080"/>
          <path id="Shape-5" data-name="Shape" d="M5.718,12.12V0H0V12.12a3.154,3.154,0,0,0,2.829,3.4h.058A3.153,3.153,0,0,0,5.718,12.12Z" transform="translate(7.517 0.546)" fill="#ed8080"/>
        </g>
        <g id="Group-5" data-name="Group" transform="translate(9.496 139.722)">
          <path id="Shape-6" data-name="Shape" d="M4.974,12.806V0H0V12.806a3.259,3.259,0,0,0,1.3,2.712H3.682A3.264,3.264,0,0,0,4.974,12.806Z" transform="translate(0.248 0.546)" fill="#95c7c9"/>
          <path id="Shape-7" data-name="Shape" d="M0,0V12.806a3.261,3.261,0,0,0,1.3,2.712H3.682a3.265,3.265,0,0,0,1.294-2.712V0Z" transform="translate(7.072 0.546)" fill="#95c7c9"/>
        </g>
      </g>
      <g id="Group_7" data-name="Group 7" transform="translate(82.415)">
        <g id="Group-6" data-name="Group" transform="translate(2.713)">
          <path id="Shape-8" data-name="Shape" d="M21.351,0H3.015A3.1,3.1,0,0,0,0,3.173V26.125a2.355,2.355,0,0,0,2.4,2.309h.049a2.355,2.355,0,0,0,2.4-2.309V7.989h0a1.645,1.645,0,0,1,.368-.045c.056,0,.109.009.165.014V54.652a3.088,3.088,0,0,0,3,3.166h.06a3.089,3.089,0,0,0,3.006-3.166V27.019h0a1.268,1.268,0,0,1,1.481,0c0,.028,0,.055,0,.084V54.652a3.089,3.089,0,0,0,3,3.165h.062a3.089,3.089,0,0,0,3.006-3.165V27.105c0-.012,0-.022,0-.035h0V7.958c.056-.005.109-.014.168-.014a1.663,1.663,0,0,1,.368.045h0V26.125a2.355,2.355,0,0,0,2.4,2.309h.048a2.353,2.353,0,0,0,2.394-2.309V3.172A3.1,3.1,0,0,0,21.351,0Z" transform="translate(0.049 12.522)" fill="#d3d3d3"/>
          <path id="Shape-9" data-name="Shape" d="M10.786,5.678a5.541,5.541,0,0,1-5.394,5.678A5.539,5.539,0,0,1,0,5.678,5.541,5.541,0,0,1,5.392,0,5.543,5.543,0,0,1,10.786,5.678Z" transform="translate(6.84 0.063)" fill="#d3d3d3"/>
        </g>
        <g id="Group-7" data-name="Group" transform="translate(9.496 85.461)">
          <ellipse id="Oval-2" data-name="Oval" cx="5.227" cy="5.427" rx="5.227" ry="5.427" transform="translate(0.222 0.235)" fill="#d3d3d3"/>
        </g>
        <g id="Group-8" data-name="Group" transform="translate(8.14 40.696)">
          <path id="Shape-10" data-name="Shape" d="M5.718,25.9V0H0V25.9a3.024,3.024,0,0,0,2.829,3.184h.058A3.023,3.023,0,0,0,5.718,25.9Z" transform="translate(7.499 0.56)" fill="#ed8080"/>
          <path id="Shape-11" data-name="Shape" d="M5.716,25.9V0H0V25.9a3.023,3.023,0,0,0,2.829,3.184h.057A3.022,3.022,0,0,0,5.716,25.9Z" transform="translate(0.391 0.56)" fill="#ed8080"/>
        </g>
        <path id="Shape-12" data-name="Shape" d="M29.764,21.705,24.425,2.995A4.081,4.081,0,0,0,20.519,0H9.325A4.082,4.082,0,0,0,5.42,2.995L.081,21.705A2.046,2.046,0,0,0,1.8,24.316l.52.052a2,2,0,0,0,2.132-1.5L8.394,8.135a.83.83,0,0,1,.52-.2L2.2,35.348H8.966v20.08a2.719,2.719,0,0,0,2.488,2.9H11.5a2.717,2.717,0,0,0,2.486-2.9V35.348h1.866v20.08a2.719,2.719,0,0,0,2.488,2.9h.049a2.717,2.717,0,0,0,2.486-2.9V35.348H27.64L20.933,7.932a.829.829,0,0,1,.518.2l3.941,14.736a2,2,0,0,0,2.134,1.5l.518-.052A2.045,2.045,0,0,0,29.764,21.705Z" transform="translate(0 97.67)" fill="#d3d3d3"/>
        <path id="Shape-13" data-name="Shape" d="M0,6.322H6.492V26a2.939,2.939,0,0,0,1.256,2.489h2.312A2.942,2.942,0,0,0,11.314,26V6.322H13.1V26a2.939,2.939,0,0,0,1.256,2.489h2.313A2.944,2.944,0,0,0,17.928,26V6.322h6.491L22.9,0H1.517Z" transform="translate(2.713 127.513)" fill="#95c7c9"/>
      </g>
      <g id="Group_6" data-name="Group 6" transform="translate(170.256)">
        <g id="Group-9" data-name="Group" transform="translate(1.357)">
          <path id="Shape-14" data-name="Shape" d="M21.352,0H3.015A3.1,3.1,0,0,0,0,3.173V26.125a2.355,2.355,0,0,0,2.4,2.309h.049a2.355,2.355,0,0,0,2.4-2.309V7.989h0a1.635,1.635,0,0,1,.368-.045c.056,0,.109.009.165.014V54.652a3.089,3.089,0,0,0,3,3.166h.061a3.089,3.089,0,0,0,3.005-3.166V27.019h0a1.285,1.285,0,0,1,.739-.237,1.3,1.3,0,0,1,.742.24c0,.028,0,.055,0,.084V54.652a3.089,3.089,0,0,0,3,3.165h.061a3.088,3.088,0,0,0,3.006-3.165V27.105c0-.012,0-.022,0-.035h0V7.958c.056-.005.109-.014.168-.014a1.663,1.663,0,0,1,.368.045h0V26.125a2.354,2.354,0,0,0,2.4,2.309h.048a2.353,2.353,0,0,0,2.394-2.309V3.172A3.1,3.1,0,0,0,21.352,0Z" transform="translate(0.028 12.522)" fill="#d3d3d3"/>
          <path id="Shape-15" data-name="Shape" d="M10.786,5.678a5.541,5.541,0,0,1-5.394,5.678A5.539,5.539,0,0,1,0,5.678,5.541,5.541,0,0,1,5.392,0,5.543,5.543,0,0,1,10.786,5.678Z" transform="translate(6.82 0.063)" fill="#d3d3d3"/>
        </g>
        <g id="Group-10" data-name="Group" transform="translate(0 85.461)">
          <path id="Shape-16" data-name="Shape" d="M29.132,21.584,23.906,2.978A4.006,4.006,0,0,0,20.083,0H9.127a4,4,0,0,0-3.82,2.978L.079,21.584a2.034,2.034,0,0,0,1.684,2.6l.509.051a1.961,1.961,0,0,0,2.086-1.488L8.216,8.09a.807.807,0,0,1,.509-.2L2.159,35.15H8.777V55.117A2.689,2.689,0,0,0,11.21,58h.048a2.687,2.687,0,0,0,2.433-2.886V35.15h1.827V55.117A2.689,2.689,0,0,0,17.953,58H18a2.687,2.687,0,0,0,2.433-2.886V35.15h6.618L20.488,7.887a.806.806,0,0,1,.508.2l3.856,14.654a1.964,1.964,0,0,0,2.089,1.488l.507-.051A2.033,2.033,0,0,0,29.132,21.584Z" transform="translate(0.319 12.035)" fill="#d3d3d3"/>
          <ellipse id="Oval-3" data-name="Oval" cx="5.226" cy="5.426" rx="5.226" ry="5.426" transform="translate(9.7 0.236)" fill="#d3d3d3"/>
        </g>
        <g id="Group-11" data-name="Group" transform="translate(1.357 28.487)">
          <path id="Shape-17" data-name="Shape" d="M13.616,38.8V12.177c0-.012,0-.022,0-.034h0V0H0V38.8a3.033,3.033,0,0,0,3,3.06h.061A3.033,3.033,0,0,0,6.07,38.8V12.093a1.315,1.315,0,0,1,.739-.229,1.329,1.329,0,0,1,.742.232c0,.027,0,.054,0,.081V38.8a3.032,3.032,0,0,0,3,3.059h.061A3.031,3.031,0,0,0,13.616,38.8Z" transform="translate(5.426)" fill="#ed8080"/>
          <path id="Shape-18" data-name="Shape" d="M0,0V11.229A2.319,2.319,0,0,0,2.4,13.46h.048a2.318,2.318,0,0,0,2.394-2.231V0Z" transform="translate(19.627)" fill="#ed8080"/>
          <path id="Shape-19" data-name="Shape" d="M0,0V11.229A2.319,2.319,0,0,0,2.4,13.46h.049a2.319,2.319,0,0,0,2.4-2.231V0Z" fill="#ed8080"/>
        </g>
        <g id="Group-12" data-name="Group" transform="translate(0 112.591)">
          <path id="Shape-20" data-name="Shape" d="M18.277,39.418v-19.3H24.9L19.884,0H5.013L0,20.119H6.618v19.3A2.852,2.852,0,0,0,7.9,41.859h2.357a2.854,2.854,0,0,0,1.279-2.442v-19.3h1.827v19.3a2.851,2.851,0,0,0,1.28,2.442H17A2.855,2.855,0,0,0,18.277,39.418Z" transform="translate(2.713)" fill="#95c7c9"/>
          <path id="Shape-21" data-name="Shape" d="M2.214,8.127A1.96,1.96,0,0,0,4.3,9.565l.508-.05A1.967,1.967,0,0,0,6.491,7.006L4.455,0H0Z" transform="translate(23.063)" fill="#95c7c9"/>
          <path id="Shape-22" data-name="Shape" d="M1.764,9.515l.509.05A1.957,1.957,0,0,0,4.358,8.127L6.571,0H2.115L.078,7.006A1.972,1.972,0,0,0,1.764,9.515Z" fill="#95c7c9"/>
        </g>
      </g>
      <g id="Group_5" data-name="Group 5" transform="translate(255.383)">
        <path id="Shape-23" data-name="Shape" d="M21.35,0H3.015A3.1,3.1,0,0,0,0,3.173V26.125a2.355,2.355,0,0,0,2.4,2.309h.049a2.355,2.355,0,0,0,2.4-2.309V7.989h0a1.635,1.635,0,0,1,.368-.045c.056,0,.109.009.165.014V54.652a3.089,3.089,0,0,0,3,3.166h.061a3.089,3.089,0,0,0,3.005-3.166V27.019h0a1.269,1.269,0,0,1,1.481,0c0,.028,0,.055,0,.084V54.652a3.088,3.088,0,0,0,3,3.165h.061a3.088,3.088,0,0,0,3.006-3.165V27.105c0-.012,0-.022,0-.035h0V7.958c.057-.005.11-.014.168-.014a1.663,1.663,0,0,1,.368.045h0V26.125a2.354,2.354,0,0,0,2.4,2.309h.048a2.353,2.353,0,0,0,2.394-2.309V3.172A3.1,3.1,0,0,0,21.35,0Z" transform="translate(4.08 12.522)" fill="#ed8080"/>
        <path id="Shape-24" data-name="Shape" d="M10.785,5.678a5.54,5.54,0,0,1-5.394,5.678A5.538,5.538,0,0,1,0,5.678,5.541,5.541,0,0,1,5.391,0,5.543,5.543,0,0,1,10.785,5.678Z" transform="translate(10.872 0.063)" fill="#d3d3d3"/>
        <g id="Group-13" data-name="Group" transform="translate(0 85.461)">
          <path id="Shape-25" data-name="Shape" d="M29.132,21.584,23.906,2.978A4.006,4.006,0,0,0,20.083,0H9.127a4,4,0,0,0-3.82,2.978L.079,21.584a2.034,2.034,0,0,0,1.684,2.6l.509.051a1.961,1.961,0,0,0,2.086-1.488L8.216,8.09a.809.809,0,0,1,.509-.2L2.159,35.15H8.777V55.117A2.689,2.689,0,0,0,11.21,58h.048a2.687,2.687,0,0,0,2.433-2.886V35.15h1.827V55.117A2.689,2.689,0,0,0,17.953,58H18a2.688,2.688,0,0,0,2.433-2.886V35.15h6.618L20.489,7.887a.806.806,0,0,1,.507.2l3.857,14.654a1.964,1.964,0,0,0,2.088,1.488l.508-.051A2.033,2.033,0,0,0,29.132,21.584Z" transform="translate(0.3 12.035)" fill="#95c7c9"/>
          <ellipse id="Oval-4" data-name="Oval" cx="5.226" cy="5.426" rx="5.226" ry="5.426" transform="translate(9.68 0.236)" fill="#d3d3d3"/>
        </g>
      </g>
      <g id="Group_8" data-name="Group 8" transform="translate(339.154)">
        <g id="Group-14" data-name="Group" transform="translate(2.713)">
          <path id="Shape-26" data-name="Shape" d="M21.973,0H3.1A3.14,3.14,0,0,0,0,3.173V26.125a2.393,2.393,0,0,0,2.467,2.309h.05a2.392,2.392,0,0,0,2.466-2.309V7.989h0a1.738,1.738,0,0,1,.378-.045c.059,0,.113.009.171.014V54.652a3.13,3.13,0,0,0,3.091,3.166h.062a3.13,3.13,0,0,0,3.093-3.166V27.019h0a1.337,1.337,0,0,1,1.525,0c0,.028,0,.055,0,.084V54.652a3.13,3.13,0,0,0,3.091,3.165h.064a3.13,3.13,0,0,0,3.094-3.165V27.105c0-.012,0-.022,0-.035h0V7.958c.058-.005.112-.014.173-.014a1.759,1.759,0,0,1,.379.045h0V26.125a2.392,2.392,0,0,0,2.466,2.309h.05a2.391,2.391,0,0,0,2.464-2.309V3.172A3.142,3.142,0,0,0,21.973,0Z" transform="translate(0.635 12.522)" fill="#ed8080"/>
          <path id="Shape-27" data-name="Shape" d="M11.1,5.678a5.614,5.614,0,0,1-5.551,5.678A5.613,5.613,0,0,1,0,5.678,5.615,5.615,0,0,1,5.549,0,5.617,5.617,0,0,1,11.1,5.678Z" transform="translate(7.624 0.063)" fill="#ed8080"/>
        </g>
        <g id="Group-15" data-name="Group" transform="translate(0 85.461)">
          <path id="Shape-28" data-name="Shape" d="M29.132,21.584,23.906,2.978A4.005,4.005,0,0,0,20.083,0H9.127A4,4,0,0,0,5.306,2.978L.079,21.584a2.033,2.033,0,0,0,1.683,2.6l.509.051a1.961,1.961,0,0,0,2.086-1.488L8.216,8.09a.809.809,0,0,1,.509-.2L2.158,35.15H8.776V55.117A2.689,2.689,0,0,0,11.21,58h.048a2.687,2.687,0,0,0,2.433-2.886V35.15h1.827V55.117A2.689,2.689,0,0,0,17.953,58H18a2.687,2.687,0,0,0,2.433-2.886V35.15h6.618L20.489,7.887a.806.806,0,0,1,.507.2l3.857,14.654a1.964,1.964,0,0,0,2.089,1.488l.507-.051A2.032,2.032,0,0,0,29.132,21.584Z" transform="translate(0.28 12.035)" fill="#95c7c9"/>
          <ellipse id="Oval-5" data-name="Oval" cx="5.226" cy="5.426" rx="5.226" ry="5.426" transform="translate(9.66 0.236)" fill="#95c7c9"/>
        </g>
      </g>
    </g>
    <g id="Group-16" data-name="Group" transform="translate(115 3351)">
      <g id="Group_4-2" data-name="Group 4">
        <g id="Group-17" data-name="Group" transform="translate(1.357)">
          <path id="Shape-29" data-name="Shape" d="M21.974,0H3.1A3.14,3.14,0,0,0,0,3.173V26.125a2.393,2.393,0,0,0,2.467,2.309h.05a2.392,2.392,0,0,0,2.466-2.309V7.989h0a1.738,1.738,0,0,1,.378-.045c.059,0,.113.009.171.014V54.652a3.13,3.13,0,0,0,3.091,3.166h.062a3.13,3.13,0,0,0,3.093-3.166V27.019h0a1.337,1.337,0,0,1,1.525,0c0,.028,0,.055,0,.084V54.652a3.13,3.13,0,0,0,3.091,3.165h.064a3.13,3.13,0,0,0,3.094-3.165V27.105c0-.012,0-.022,0-.035h0V7.958c.058-.005.112-.014.173-.014a1.759,1.759,0,0,1,.379.045h0V26.125a2.392,2.392,0,0,0,2.466,2.309h.05a2.391,2.391,0,0,0,2.464-2.309V3.172A3.141,3.141,0,0,0,21.974,0Z" transform="translate(0.07 12.522)" fill="#d3d3d3"/>
          <path id="Shape-30" data-name="Shape" d="M11.1,5.678a5.614,5.614,0,0,1-5.551,5.678A5.613,5.613,0,0,1,0,5.678,5.615,5.615,0,0,1,5.549,0,5.617,5.617,0,0,1,11.1,5.678Z" transform="translate(7.061 0.063)" fill="#d3d3d3"/>
        </g>
        <g id="Group-18" data-name="Group" transform="translate(0 85.461)">
          <path id="Shape-31" data-name="Shape" d="M29.131,21.584,23.905,2.978A4.006,4.006,0,0,0,20.083,0H9.126A4.006,4.006,0,0,0,5.3,2.978L.079,21.584a2.033,2.033,0,0,0,1.683,2.6l.508.051a1.961,1.961,0,0,0,2.087-1.488L8.216,8.09a.806.806,0,0,1,.508-.2L2.157,35.15H8.775V55.117A2.689,2.689,0,0,0,11.209,58h.048a2.687,2.687,0,0,0,2.433-2.886V35.15h1.826V55.117A2.689,2.689,0,0,0,17.952,58H18a2.687,2.687,0,0,0,2.433-2.886V35.15h6.618L20.487,7.887a.811.811,0,0,1,.509.2l3.856,14.654a1.966,1.966,0,0,0,2.089,1.488l.509-.051A2.033,2.033,0,0,0,29.131,21.584Z" transform="translate(0.36 12.035)" fill="#d3d3d3"/>
          <ellipse id="Oval-6" data-name="Oval" cx="5.227" cy="5.427" rx="5.227" ry="5.427" transform="translate(9.738 0.235)" fill="#d3d3d3"/>
        </g>
        <g id="Group-19" data-name="Group" transform="translate(6.783 54.261)">
          <path id="Shape-32" data-name="Shape" d="M5.716,12.12V0H0V12.12a3.154,3.154,0,0,0,2.829,3.4h.057A3.153,3.153,0,0,0,5.716,12.12Z" transform="translate(0.41 0.546)" fill="#ed8080"/>
          <path id="Shape-33" data-name="Shape" d="M5.718,12.12V0H0V12.12a3.154,3.154,0,0,0,2.829,3.4h.058A3.153,3.153,0,0,0,5.718,12.12Z" transform="translate(7.517 0.546)" fill="#ed8080"/>
        </g>
        <g id="Group-20" data-name="Group" transform="translate(9.496 139.722)">
          <path id="Shape-34" data-name="Shape" d="M4.974,12.806V0H0V12.806a3.259,3.259,0,0,0,1.3,2.712H3.682A3.264,3.264,0,0,0,4.974,12.806Z" transform="translate(0.248 0.546)" fill="#95c7c9"/>
          <path id="Shape-35" data-name="Shape" d="M0,0V12.806a3.261,3.261,0,0,0,1.3,2.712H3.682a3.265,3.265,0,0,0,1.294-2.712V0Z" transform="translate(7.072 0.546)" fill="#95c7c9"/>
        </g>
      </g>
      <g id="Group_7-2" data-name="Group 7" transform="translate(82.415)">
        <g id="Group-21" data-name="Group" transform="translate(2.713)">
          <path id="Shape-36" data-name="Shape" d="M21.351,0H3.015A3.1,3.1,0,0,0,0,3.173V26.125a2.355,2.355,0,0,0,2.4,2.309h.049a2.355,2.355,0,0,0,2.4-2.309V7.989h0a1.645,1.645,0,0,1,.368-.045c.056,0,.109.009.165.014V54.652a3.088,3.088,0,0,0,3,3.166h.06a3.089,3.089,0,0,0,3.006-3.166V27.019h0a1.268,1.268,0,0,1,1.481,0c0,.028,0,.055,0,.084V54.652a3.089,3.089,0,0,0,3,3.165h.062a3.089,3.089,0,0,0,3.006-3.165V27.105c0-.012,0-.022,0-.035h0V7.958c.056-.005.109-.014.168-.014a1.663,1.663,0,0,1,.368.045h0V26.125a2.355,2.355,0,0,0,2.4,2.309h.048a2.353,2.353,0,0,0,2.394-2.309V3.172A3.1,3.1,0,0,0,21.351,0Z" transform="translate(0.049 12.522)" fill="#d3d3d3"/>
          <path id="Shape-37" data-name="Shape" d="M10.786,5.678a5.541,5.541,0,0,1-5.394,5.678A5.539,5.539,0,0,1,0,5.678,5.541,5.541,0,0,1,5.392,0,5.543,5.543,0,0,1,10.786,5.678Z" transform="translate(6.84 0.063)" fill="#d3d3d3"/>
        </g>
        <g id="Group-22" data-name="Group" transform="translate(9.496 85.461)">
          <ellipse id="Oval-7" data-name="Oval" cx="5.227" cy="5.427" rx="5.227" ry="5.427" transform="translate(0.222 0.235)" fill="#d3d3d3"/>
        </g>
        <g id="Group-23" data-name="Group" transform="translate(8.14 40.696)">
          <path id="Shape-38" data-name="Shape" d="M5.718,25.9V0H0V25.9a3.024,3.024,0,0,0,2.829,3.184h.058A3.023,3.023,0,0,0,5.718,25.9Z" transform="translate(7.499 0.56)" fill="#ed8080"/>
          <path id="Shape-39" data-name="Shape" d="M5.716,25.9V0H0V25.9a3.023,3.023,0,0,0,2.829,3.184h.057A3.022,3.022,0,0,0,5.716,25.9Z" transform="translate(0.391 0.56)" fill="#ed8080"/>
        </g>
        <path id="Shape-40" data-name="Shape" d="M29.764,21.705,24.425,2.995A4.081,4.081,0,0,0,20.519,0H9.325A4.082,4.082,0,0,0,5.42,2.995L.081,21.705A2.046,2.046,0,0,0,1.8,24.316l.52.052a2,2,0,0,0,2.132-1.5L8.394,8.135a.83.83,0,0,1,.52-.2L2.2,35.348H8.966v20.08a2.719,2.719,0,0,0,2.488,2.9H11.5a2.717,2.717,0,0,0,2.486-2.9V35.348h1.866v20.08a2.719,2.719,0,0,0,2.488,2.9h.049a2.717,2.717,0,0,0,2.486-2.9V35.348H27.64L20.933,7.932a.829.829,0,0,1,.518.2l3.941,14.736a2,2,0,0,0,2.134,1.5l.518-.052A2.045,2.045,0,0,0,29.764,21.705Z" transform="translate(0 97.67)" fill="#d3d3d3"/>
        <path id="Shape-41" data-name="Shape" d="M0,6.322H6.492V26a2.939,2.939,0,0,0,1.256,2.489h2.312A2.942,2.942,0,0,0,11.314,26V6.322H13.1V26a2.939,2.939,0,0,0,1.256,2.489h2.313A2.944,2.944,0,0,0,17.928,26V6.322h6.491L22.9,0H1.517Z" transform="translate(2.713 127.513)" fill="#95c7c9"/>
      </g>
      <g id="Group_6-2" data-name="Group 6" transform="translate(170.256)">
        <g id="Group-24" data-name="Group" transform="translate(1.357)">
          <path id="Shape-42" data-name="Shape" d="M21.352,0H3.015A3.1,3.1,0,0,0,0,3.173V26.125a2.355,2.355,0,0,0,2.4,2.309h.049a2.355,2.355,0,0,0,2.4-2.309V7.989h0a1.635,1.635,0,0,1,.368-.045c.056,0,.109.009.165.014V54.652a3.089,3.089,0,0,0,3,3.166h.061a3.089,3.089,0,0,0,3.005-3.166V27.019h0a1.285,1.285,0,0,1,.739-.237,1.3,1.3,0,0,1,.742.24c0,.028,0,.055,0,.084V54.652a3.089,3.089,0,0,0,3,3.165h.061a3.088,3.088,0,0,0,3.006-3.165V27.105c0-.012,0-.022,0-.035h0V7.958c.056-.005.109-.014.168-.014a1.663,1.663,0,0,1,.368.045h0V26.125a2.354,2.354,0,0,0,2.4,2.309h.048a2.353,2.353,0,0,0,2.394-2.309V3.172A3.1,3.1,0,0,0,21.352,0Z" transform="translate(0.028 12.522)" fill="#d3d3d3"/>
          <path id="Shape-43" data-name="Shape" d="M10.786,5.678a5.541,5.541,0,0,1-5.394,5.678A5.539,5.539,0,0,1,0,5.678,5.541,5.541,0,0,1,5.392,0,5.543,5.543,0,0,1,10.786,5.678Z" transform="translate(6.82 0.063)" fill="#d3d3d3"/>
        </g>
        <g id="Group-25" data-name="Group" transform="translate(0 85.461)">
          <path id="Shape-44" data-name="Shape" d="M29.132,21.584,23.906,2.978A4.006,4.006,0,0,0,20.083,0H9.127a4,4,0,0,0-3.82,2.978L.079,21.584a2.034,2.034,0,0,0,1.684,2.6l.509.051a1.961,1.961,0,0,0,2.086-1.488L8.216,8.09a.807.807,0,0,1,.509-.2L2.159,35.15H8.777V55.117A2.689,2.689,0,0,0,11.21,58h.048a2.687,2.687,0,0,0,2.433-2.886V35.15h1.827V55.117A2.689,2.689,0,0,0,17.953,58H18a2.687,2.687,0,0,0,2.433-2.886V35.15h6.618L20.488,7.887a.806.806,0,0,1,.508.2l3.856,14.654a1.964,1.964,0,0,0,2.089,1.488l.507-.051A2.033,2.033,0,0,0,29.132,21.584Z" transform="translate(0.319 12.035)" fill="#d3d3d3"/>
          <ellipse id="Oval-8" data-name="Oval" cx="5.226" cy="5.426" rx="5.226" ry="5.426" transform="translate(9.7 0.236)" fill="#d3d3d3"/>
        </g>
        <g id="Group-26" data-name="Group" transform="translate(1.357 28.487)">
          <path id="Shape-45" data-name="Shape" d="M13.616,38.8V12.177c0-.012,0-.022,0-.034h0V0H0V38.8a3.033,3.033,0,0,0,3,3.06h.061A3.033,3.033,0,0,0,6.07,38.8V12.093a1.315,1.315,0,0,1,.739-.229,1.329,1.329,0,0,1,.742.232c0,.027,0,.054,0,.081V38.8a3.032,3.032,0,0,0,3,3.059h.061A3.031,3.031,0,0,0,13.616,38.8Z" transform="translate(5.426)" fill="#ed8080"/>
          <path id="Shape-46" data-name="Shape" d="M0,0V11.229A2.319,2.319,0,0,0,2.4,13.46h.048a2.318,2.318,0,0,0,2.394-2.231V0Z" transform="translate(19.627)" fill="#ed8080"/>
          <path id="Shape-47" data-name="Shape" d="M0,0V11.229A2.319,2.319,0,0,0,2.4,13.46h.049a2.319,2.319,0,0,0,2.4-2.231V0Z" fill="#ed8080"/>
        </g>
        <g id="Group-27" data-name="Group" transform="translate(0 112.591)">
          <path id="Shape-48" data-name="Shape" d="M18.277,39.418v-19.3H24.9L19.884,0H5.013L0,20.119H6.618v19.3A2.852,2.852,0,0,0,7.9,41.859h2.357a2.854,2.854,0,0,0,1.279-2.442v-19.3h1.827v19.3a2.851,2.851,0,0,0,1.28,2.442H17A2.855,2.855,0,0,0,18.277,39.418Z" transform="translate(2.713)" fill="#95c7c9"/>
          <path id="Shape-49" data-name="Shape" d="M2.214,8.127A1.96,1.96,0,0,0,4.3,9.565l.508-.05A1.967,1.967,0,0,0,6.491,7.006L4.455,0H0Z" transform="translate(23.063)" fill="#95c7c9"/>
          <path id="Shape-50" data-name="Shape" d="M1.764,9.515l.509.05A1.957,1.957,0,0,0,4.358,8.127L6.571,0H2.115L.078,7.006A1.972,1.972,0,0,0,1.764,9.515Z" fill="#95c7c9"/>
        </g>
      </g>
      <g id="Group_5-2" data-name="Group 5" transform="translate(255.383)">
        <path id="Shape-51" data-name="Shape" d="M21.35,0H3.015A3.1,3.1,0,0,0,0,3.173V26.125a2.355,2.355,0,0,0,2.4,2.309h.049a2.355,2.355,0,0,0,2.4-2.309V7.989h0a1.635,1.635,0,0,1,.368-.045c.056,0,.109.009.165.014V54.652a3.089,3.089,0,0,0,3,3.166h.061a3.089,3.089,0,0,0,3.005-3.166V27.019h0a1.269,1.269,0,0,1,1.481,0c0,.028,0,.055,0,.084V54.652a3.088,3.088,0,0,0,3,3.165h.061a3.088,3.088,0,0,0,3.006-3.165V27.105c0-.012,0-.022,0-.035h0V7.958c.057-.005.11-.014.168-.014a1.663,1.663,0,0,1,.368.045h0V26.125a2.354,2.354,0,0,0,2.4,2.309h.048a2.353,2.353,0,0,0,2.394-2.309V3.172A3.1,3.1,0,0,0,21.35,0Z" transform="translate(4.08 12.522)" fill="#ed8080"/>
        <path id="Shape-52" data-name="Shape" d="M10.785,5.678a5.54,5.54,0,0,1-5.394,5.678A5.538,5.538,0,0,1,0,5.678,5.541,5.541,0,0,1,5.391,0,5.543,5.543,0,0,1,10.785,5.678Z" transform="translate(10.872 0.063)" fill="#d3d3d3"/>
        <g id="Group-28" data-name="Group" transform="translate(0 85.461)">
          <path id="Shape-53" data-name="Shape" d="M29.132,21.584,23.906,2.978A4.006,4.006,0,0,0,20.083,0H9.127a4,4,0,0,0-3.82,2.978L.079,21.584a2.034,2.034,0,0,0,1.684,2.6l.509.051a1.961,1.961,0,0,0,2.086-1.488L8.216,8.09a.809.809,0,0,1,.509-.2L2.159,35.15H8.777V55.117A2.689,2.689,0,0,0,11.21,58h.048a2.687,2.687,0,0,0,2.433-2.886V35.15h1.827V55.117A2.689,2.689,0,0,0,17.953,58H18a2.688,2.688,0,0,0,2.433-2.886V35.15h6.618L20.489,7.887a.806.806,0,0,1,.507.2l3.857,14.654a1.964,1.964,0,0,0,2.088,1.488l.508-.051A2.033,2.033,0,0,0,29.132,21.584Z" transform="translate(0.3 12.035)" fill="#95c7c9"/>
          <ellipse id="Oval-9" data-name="Oval" cx="5.226" cy="5.426" rx="5.226" ry="5.426" transform="translate(9.68 0.236)" fill="#d3d3d3"/>
        </g>
      </g>
      <g id="Group_8-2" data-name="Group 8" transform="translate(339.154)">
        <g id="Group-29" data-name="Group" transform="translate(2.713)">
          <path id="Shape-54" data-name="Shape" d="M21.973,0H3.1A3.14,3.14,0,0,0,0,3.173V26.125a2.393,2.393,0,0,0,2.467,2.309h.05a2.392,2.392,0,0,0,2.466-2.309V7.989h0a1.738,1.738,0,0,1,.378-.045c.059,0,.113.009.171.014V54.652a3.13,3.13,0,0,0,3.091,3.166h.062a3.13,3.13,0,0,0,3.093-3.166V27.019h0a1.337,1.337,0,0,1,1.525,0c0,.028,0,.055,0,.084V54.652a3.13,3.13,0,0,0,3.091,3.165h.064a3.13,3.13,0,0,0,3.094-3.165V27.105c0-.012,0-.022,0-.035h0V7.958c.058-.005.112-.014.173-.014a1.759,1.759,0,0,1,.379.045h0V26.125a2.392,2.392,0,0,0,2.466,2.309h.05a2.391,2.391,0,0,0,2.464-2.309V3.172A3.142,3.142,0,0,0,21.973,0Z" transform="translate(0.635 12.522)" fill="#ed8080"/>
          <path id="Shape-55" data-name="Shape" d="M11.1,5.678a5.614,5.614,0,0,1-5.551,5.678A5.613,5.613,0,0,1,0,5.678,5.615,5.615,0,0,1,5.549,0,5.617,5.617,0,0,1,11.1,5.678Z" transform="translate(7.624 0.063)" fill="#ed8080"/>
        </g>
        <g id="Group-30" data-name="Group" transform="translate(0 85.461)">
          <path id="Shape-56" data-name="Shape" d="M29.132,21.584,23.906,2.978A4.005,4.005,0,0,0,20.083,0H9.127A4,4,0,0,0,5.306,2.978L.079,21.584a2.033,2.033,0,0,0,1.683,2.6l.509.051a1.961,1.961,0,0,0,2.086-1.488L8.216,8.09a.809.809,0,0,1,.509-.2L2.158,35.15H8.776V55.117A2.689,2.689,0,0,0,11.21,58h.048a2.687,2.687,0,0,0,2.433-2.886V35.15h1.827V55.117A2.689,2.689,0,0,0,17.953,58H18a2.687,2.687,0,0,0,2.433-2.886V35.15h6.618L20.489,7.887a.806.806,0,0,1,.507.2l3.857,14.654a1.964,1.964,0,0,0,2.089,1.488l.507-.051A2.032,2.032,0,0,0,29.132,21.584Z" transform="translate(0.28 12.035)" fill="#95c7c9"/>
          <ellipse id="Oval-10" data-name="Oval" cx="5.226" cy="5.426" rx="5.226" ry="5.426" transform="translate(9.66 0.236)" fill="#95c7c9"/>
        </g>
      </g>
    </g>
  </g>
</svg>
