<svg xmlns="http://www.w3.org/2000/svg" width="228" height="127" viewBox="0 0 228 127">
  <g id="teacher_vektor_mb" transform="translate(-30 -53)">
    <g id="OJXK921" transform="translate(30 53)">
      <path id="Fill_3" data-name="Fill 3" d="M226,124H0v-4.227H224.085v-4.818H226V124Zm-3.986-13.093H220.1V0h1.915Z" transform="translate(2 3)" fill="#cac9c4"/>
      <path id="Fill_4" data-name="Fill 4" d="M0,110H213V0H0Z" transform="translate(6 2)" fill="#323136"/>
      <path id="Fill_5" data-name="Fill 5" d="M0,101H205V0H0Z" transform="translate(10 7)" fill="#3c3a41"/>
      <path id="Fill_6" data-name="Fill 6" d="M218,114H0V0H218V114ZM4.655,4.63V109.369H213.344V4.63Z" transform="translate(4)" fill="#b28f5a"/>
      <path id="Fill_7" data-name="Fill 7" d="M5,4.48H4.48V5L0,.52V0H.52L5,4.48" transform="translate(4)" fill="#836a44"/>
      <path id="Fill_8" data-name="Fill 8" d="M0,4.48H.519V5L5,.52V0H4.481L0,4.48" transform="translate(217)" fill="#836a44"/>
      <path id="Fill_9" data-name="Fill 9" d="M0,.52H.519V0L5,4.48V5H4.481L0,.52" transform="translate(217 109)" fill="#836a44"/>
      <path id="Fill_10" data-name="Fill 10" d="M5,.52H4.48V0L0,4.48V5H.52L5,.52" transform="translate(4 109)" fill="#836a44"/>
      <path id="Fill_11" data-name="Fill 11" d="M0,9H226V0H0Z" transform="translate(0 114)" fill="#c49e61"/>
      <path id="Fill_12" data-name="Fill 12" d="M0,1H226V0H0Z" transform="translate(0 122)" fill="#a18352"/>
      <path id="Fill_13" data-name="Fill 13" d="M0,1H226V0H0Z" transform="translate(0 115)" fill="#d0b381"/>
      <path id="Fill_14" data-name="Fill 14" d="M9.038,2H.962A.981.981,0,0,1,0,1,.981.981,0,0,1,.962,0H9.038A.981.981,0,0,1,10,1a.981.981,0,0,1-.962,1" transform="translate(11 112)" fill="#fffffe"/>
      <path id="Fill_15" data-name="Fill 15" d="M0,6H15V0H0Z" transform="translate(24 108)" fill="#fffffe"/>
      <path id="Fill_16" data-name="Fill 16" d="M0,5H15V0H0Z" transform="translate(24 108)" fill="#c1aa7f"/>
      <text id="Migros_Parekende_Aka" data-name="Migros Parekende Aka" transform="translate(24 44)" fill="#fff" font-size="13" font-family="SegoeUI, Segoe UI" letter-spacing="0.036em"><tspan x="0" y="0">Migros</tspan><tspan x="0" y="17">Parekende</tspan><tspan x="0" y="34">Akademisi</tspan></text>
    </g>
  </g>
</svg>
