<svg id="iletisim" xmlns="http://www.w3.org/2000/svg" xmlns:xlink="http://www.w3.org/1999/xlink" width="642" height="463" viewBox="0 0 642 463">
  <defs>
    <linearGradient id="linear-gradient" x1="0.5" x2="0.5" y2="1" gradientUnits="objectBoundingBox">
      <stop offset="0" stop-color="#d85354"/>
      <stop offset="1" stop-color="#ebf6f9"/>
    </linearGradient>
    <linearGradient id="linear-gradient-2" x1="0.5" x2="0.5" y2="1" gradientUnits="objectBoundingBox">
      <stop offset="0" stop-color="#81cfe6"/>
      <stop offset="1" stop-color="#f9ca2a"/>
    </linearGradient>
    <clipPath id="clip-path">
      <path id="Oval" d="M335.369,459.476c212.184,33.063,247.791-174.931,298.22-271.6S498.122,0,331.014,0,105.927,86.854,28.439,187.877c-47.172,61.5-36.338,154.66,37.575,187.877C103.8,392.737,288.308,452.143,335.369,459.476Z" fill="none"/>
    </clipPath>
    <clipPath id="clip-path-2">
      <path id="Oval-2" data-name="Oval" d="M295.146,403.9C481.881,432.966,513.217,250.129,557.6,165.154S438.378,0,291.313,0,93.222,76.349,25.028,165.154C-16.486,219.215-6.952,301.108,58.1,330.307,91.351,345.235,253.729,397.456,295.146,403.9Z" transform="translate(0 46)" fill="url(#linear-gradient)"/>
    </clipPath>
  </defs>
  <path id="Oval-3" data-name="Oval" d="M276.382,388C462.649,417,542,314.236,542,223.238S432.885,0,286.188,0-46.972,132.241,10.763,223.238c38.2,60.214,71.339,96.285,136.224,125.415C180.159,363.546,235.068,381.573,276.382,388Z" transform="translate(14 12)" fill="url(#linear-gradient-2)"/>
  <path id="Oval-4" data-name="Oval" d="M335.369,459.476c212.184,33.063,247.791-174.931,298.22-271.6S498.122,0,331.014,0,105.927,86.854,28.439,187.877c-47.172,61.5-36.338,154.66,37.575,187.877C103.8,392.737,288.308,452.143,335.369,459.476Z" fill="none"/>
  <path id="Oval-5" data-name="Oval" d="M295.146,403.9C481.881,432.966,513.217,250.129,557.6,165.154S438.378,0,291.313,0,93.222,76.349,25.028,165.154C-16.486,219.215-6.952,301.108,58.1,330.307,91.351,345.235,253.729,397.456,295.146,403.9Z" transform="translate(0 46)" fill="url(#linear-gradient)"/>
  <g id="iletisim-3" data-name="iletisim" clip-path="url(#clip-path-2)">
    <g id="Varlık_2" data-name="Varlık 2" transform="translate(49 108)">
      <path id="Shape" d="M56.708,246.607h0c-2.279-7.793-4.437-15.7-6.523-23.345l0-.007-.006-.022-.062-.228-.012-.045v-.005c-1.692-6.2-3.442-12.6-5.233-18.865,5.232-8.284,2.4-15.157-.338-21.8-2-4.852-3.885-9.435-2.8-14.459.667-3.191.236-5.755-1.281-7.621-2.348-2.89-6.623-3.322-8.961-3.322a20.47,20.47,0,0,0-4.469.493,41.649,41.649,0,0,1-9.409,1.459,11.045,11.045,0,0,1-8.035-2.986c-2.214-2.035-4.331-5.31-6.864-10.62a28.917,28.917,0,0,1-2.642-14.8,50.543,50.543,0,0,1,3.885-16.159,53.7,53.7,0,0,1,9.174-14.911c3.837-4.331,8.051-7.341,12.188-8.707C30.069,89.117,33.5,88.4,36.094,88.4c4.866,0,6.969,2.442,10.453,6.487a75.3,75.3,0,0,0,7.739,8.008A6.178,6.178,0,0,0,59.4,98.428a2.606,2.606,0,0,1,2.217-1.083,12.116,12.116,0,0,1,4.256,1.265l.1.041a12.818,12.818,0,0,0,4.522,1.306c.1,0,.2,0,.3-.011-.6.445-.863.838-.763,1.139.124.375.8.59,1.865.59,2.7,0,7.519-1.393,9.787-4.488a6.583,6.583,0,0,0,.862-6.172,1.569,1.569,0,0,1-.091-.43,19.221,19.221,0,0,1,.9,2.139l.005.013.026.067.022.059.014.036a20.068,20.068,0,0,0,.938,2.243A35.45,35.45,0,0,0,83.168,91.1c-1.046-2.138-3.149-2.577-5.985-2.577-.51,0-1.059.014-1.5.025l-.072,0H75.6c-.483.013-1.03.027-1.555.027-2.03,0-4.075-.2-5.291-1.643-1.193-1.415-1.466-3.88-.836-7.536a5.91,5.91,0,0,0-1.769-.343,1.689,1.689,0,0,0-1.307.482c-.717.766-.613,2.355-.5,4.038.019.288.036.552.049.787.087,1.59.1,3.373-.879,4.406a3.394,3.394,0,0,1-2.6.9h-.079A26.786,26.786,0,0,0,46.661,69.133c0,4.1,2.206,5.777,4.34,7.4l.008.006a9.135,9.135,0,0,1,3.014,3.123c.7,1.467.61,3.26-.275,5.641a14.2,14.2,0,0,0-21.438-8.932c-.673.4-3.8,4.353-6.822,8.175l-.016.021C22.65,88.13,19.985,91.5,19.688,91.5a.022.022,0,0,1-.02-.009.052.052,0,0,1-.007-.029c-2.013-.863-4.105-3.064-5.6-5.889-1.5-2.847-2.13-5.851-1.681-8.036.37-1.8,1.635-3.952,5.563-3.952.18,0,.365,0,.548.013.42.034.832.051,1.225.051,2.808,0,4.654-.914,5.2-2.575a5.06,5.06,0,0,0-.606-3.857,11.982,11.982,0,0,0-3.484-3.891,30.357,30.357,0,0,1,9.418-4.466C29.813,57.646,28.9,57.1,27.291,57.1a17.855,17.855,0,0,0-2.366.225l-.02,0a17.8,17.8,0,0,1-2.346.223c-1.558,0-2.452-.506-2.9-1.641-.623-1.583-.7-2.688-.226-3.379.628-.92,2.184-1,3.724-1a36.629,36.629,0,0,0-7.087-7.324c1.35-2.311,2.729-3.482,4.1-3.482,2.877,0,5.229,5.043,6.946,8.725l.029.06.005.012c.492,1.053.917,1.963,1.3,2.635,1.347,2.314,2.46,3.391,3.5,3.391.918,0,1.7-.8,2.61-1.723.128-.13.276-.282.424-.429a5.9,5.9,0,0,1,4.157-2.153,5.441,5.441,0,0,1,1.685.288,5.788,5.788,0,0,1,1.045-7.215c-.2.46,1.488,1.8,3.62,2.878V39.836a6.115,6.115,0,0,1-9.418,0c0-7.247,2.257-8.841,5.674-11.254l.005,0a29.848,29.848,0,0,0,6.34-5.622,25.654,25.654,0,0,1,9-7.146,23.484,23.484,0,0,1,9.986-2.064,44.59,44.59,0,0,1,12.643,2.131C84.186,17.207,88.7,19,92.946,20.722A7.735,7.735,0,0,1,81.734,22.24a7.317,7.317,0,0,0,0,5.806,7.712,7.712,0,0,0,2.452.417c4.634,0,7.954-4.648,10.151-7.723,1.116-1.562,2-2.8,2.646-2.876a3.09,3.09,0,0,1,.367-.023,1.73,1.73,0,0,1,1.632.883c.456.871.178,2.186-.743,3.517a52.961,52.961,0,0,1,34.086-4.377,5.936,5.936,0,0,1-.679-3.653,10.269,10.269,0,0,1,1.243-3.982C134,8.242,135.541,7.1,137.123,7.1a4.774,4.774,0,0,1,3.452,1.83,27.111,27.111,0,0,0-.535,5.737v.005c-.064,3.4-.119,6.336-3.052,8.906a2.249,2.249,0,0,0,.874.179c1.447,0,2.914-1.371,4.468-2.821l.259-.242c1.8-1.676,3.435-3.063,5.26-3.063a3.5,3.5,0,0,1,.978.141,6.715,6.715,0,0,0-.3-2.345.988.988,0,0,0-.94-.743,4.641,4.641,0,0,0-1.86.72l-.156.084a5.206,5.206,0,0,1-2.283.8,1.8,1.8,0,0,1-.382-.039,8.134,8.134,0,0,1,0-7.324c.659,1.8,2.112,1.95,4.124,2.154a13.265,13.265,0,0,1,8.793,3.741A2.406,2.406,0,0,0,157.073,12a4.84,4.84,0,0,0-4.126-3.151,2.431,2.431,0,0,0-.622.078c10.285-7.8,21.547-8.443,33.145-8.443.645,0,1.3,0,1.937,0h.029l.431,0h.006l.419,0,.4,0,.457,0c.645,0,1.313,0,1.97,0A106.467,106.467,0,0,0,202.917,0c3.659,5.444,8.285,5.889,12.759,6.319a24,24,0,0,1,6.946,1.373,13.2,13.2,0,0,1,6.217,5.528c-.038.042-.053.074-.044.093s.027.023.062.023c.675,0,6.367-2.732,10.561-5.314C241.9,6.492,244.8,4.448,244.5,3.392c-.129-.456-.852-.687-2.148-.687a22.584,22.584,0,0,0-2.923.242c.691-1.158,2.009-1.674,4.273-1.674,1.049,0,2.2.11,3.32.216s2.274.216,3.325.216a9.119,9.119,0,0,0,2-.187,2.074,2.074,0,0,1-.58,2.089,4.037,4.037,0,0,1-1.822.558,3.025,3.025,0,0,0-2.157.894,2.919,2.919,0,0,0-.2,2.265,124.085,124.085,0,0,0,42.428,10.361,23.716,23.716,0,0,0,5.009-.932l.013,0a28.572,28.572,0,0,1,6.43-1.131c1.728,0,2.9.472,3.576,1.443,1.166,1.668.887,4.793-.855,9.555a12.055,12.055,0,0,1-4.462,5.75,27.5,27.5,0,0,1-8.634,3.807c-9.693,2.609-12.161,7.106-15.9,13.914-1.393,2.54-2.973,5.42-5.182,8.683a44.329,44.329,0,0,1-1.256-16.166,17.815,17.815,0,0,1,4.53-2.873c2.948-1.47,5.732-2.858,6.145-7.31h-.006a2.525,2.525,0,0,0-2,.706,2.625,2.625,0,0,0-.42,2.152,13.651,13.651,0,0,0-3.46-.647c-1.424,0-2.172.6-3.661,1.794l-.008.006a43.6,43.6,0,0,1-4.622,3.313,22.383,22.383,0,0,0-26.909,8.932A17.6,17.6,0,0,0,246.135,54c1.615.6,2.782,1.038,3.449,2.822.682,1.825.857,5,.6,10.969a3.3,3.3,0,0,1-.608.062,1.631,1.631,0,0,1-1.277-.513c-.973-1.061-.747-3.655-.528-6.165v-.007A17.432,17.432,0,0,0,247.766,56a55.732,55.732,0,0,1-22.514,24.83,35.851,35.851,0,0,1,1.963,5.838c.653,2.858.574,4.933-.236,6.168a3.154,3.154,0,0,1-2.836,1.324,7.448,7.448,0,0,1-1.224-.111c1.464-3.743.479-5.284-.662-7.068a8.6,8.6,0,0,1-1.67-6.152,2.185,2.185,0,0,0-.389-.036,3.157,3.157,0,0,0-2.256,1.319c-.175.2-.338.415-.469.584l-.011.015c-.31.4-.556.72-.735.72s-.276-.283-.344-.917c-.07-.665-.1-1.707-.1-3.38l-5.83,4.377c.707,2.66,1.977,4.009,3.774,4.009a6.664,6.664,0,0,0,3.223-1.062c-3.338,4.373-3.065,8.717-2.777,13.316.3,4.794.61,9.75-3.144,15.176a11.315,11.315,0,0,1-9.591,5.305c-.31,0-.614-.012-.9-.036-2.66,1.112-2.358,3.353-2.039,5.725.214,1.592.436,3.239-.294,4.547a3.257,3.257,0,0,1-.947.166,1.321,1.321,0,0,1-1.031-.411c-.766-.831-.6-2.839-.446-4.782v-.014a14.465,14.465,0,0,0,0-3.891c-.161-.013-.32-.021-.473-.021a2.345,2.345,0,0,0-2.007.8c-1.12,1.47-.2,4.819.869,8.7l0,.007c1.873,6.8,4.2,15.265-3.056,18.384-2.437,0-3.216-2.17-4.04-4.468-.672-1.874-1.368-3.811-3.047-4.464A7.188,7.188,0,0,0,182.2,146.3c-1.177-.634-1.9-2.011-2.219-4.21a42.7,42.7,0,0,1-.158-6.719l0-.058v-.064c.03-1.2.061-2.438.042-3.6-2.641,0-3.5,1.789-4.414,3.682l-.061.126c-.088.183-.183.377-.279.569a87.284,87.284,0,0,0-4.664-16.078c-6,.521-10.571,3.578-13.987,9.347-3.04,5.133-4.879,11.842-6.657,18.33-.542,1.977-1.1,4.02-1.691,6a106.638,106.638,0,0,0-12.558-33.316c-4.071-4.945-8.85-5.878-13.91-6.866a32.851,32.851,0,0,1-8.874-2.639,19.954,19.954,0,0,1-8.072-7.912c-1.525.931-1.187,4.388-.434,7.065a17.718,17.718,0,0,0,2.314,5.146c1.063,1.536,2.191,2.348,3.262,2.348,1.452,0,2.74-1.443,3.828-4.288a49.332,49.332,0,0,0,3.227,4.847l.006.008c3.326,4.549,4.571,6.251-3.233,13.813a38.629,38.629,0,0,1-18.747,8.932,162.321,162.321,0,0,0-13.185-33.494A45.082,45.082,0,0,0,88.1,131.476c1.033,2.113,1.883,3.925,2.5,5.249l.063.134c1.46,3.113,2.264,4.828,3.1,5.814a3.589,3.589,0,0,0,3.2,1.2c.494,0,1.041-.022,1.676-.047l.378-.015c.823-.032,1.736-.062,2.834-.062,1.379,0,2.746.048,4.181.147a43.052,43.052,0,0,1-11.75,25.367c-5.712,7.171-5.317,13.77-4.9,20.758v.006c.355,5.937.721,12.075-2.905,18.715a83.845,83.845,0,0,0-5.074,12.379l-.005.015c-2.052,5.868-4.173,11.935-7.785,16.617a21.782,21.782,0,0,1-6.748,5.891A25.6,25.6,0,0,1,56.708,246.607ZM107.87,64.988c-2.6,0-5.527,1.332-8.042,2.635-.053.026-.1.053-.154.08-.011.086-.022.182-.032.283a10.158,10.158,0,0,0-.071,1.752,31.515,31.515,0,0,0,3.144,12.408c2.157,4.449,4.837,7.123,7.544,7.528A19.239,19.239,0,0,0,105.5,70.651a2.223,2.223,0,0,1,1.921-1.254,4.96,4.96,0,0,1,1.786.468l.078.032a4.549,4.549,0,0,0,1.562.436c.91,0,1.446-.811,1.738-2.629A5.087,5.087,0,0,0,107.87,64.988Zm-32.505.929a29.5,29.5,0,0,0-4.935,12.007,2.6,2.6,0,0,0-.178,1.212c.237-.077.481-.159.724-.245A21.876,21.876,0,0,1,77.9,77.746a37.494,37.494,0,0,1,4.591.357H82.5a37.4,37.4,0,0,0,4.557.355,20.554,20.554,0,0,0,5.527-.753,45.22,45.22,0,0,0-8.252-11.79c-.937,2.51-1.973,3.679-3.258,3.68-1.237,0-2.53-1.088-3.9-2.241C76.588,66.859,75.978,66.346,75.364,65.917ZM46.2,47.536h0a16.146,16.146,0,0,0,6.449,1.6,8.851,8.851,0,0,0,1.371-.1c2.51-.4,4.676-2.221,7.185-4.333l.007-.006c3.081-2.595,6.573-5.536,11.555-6.379-.688-3.022-2.041-4.431-4.259-4.431a9.687,9.687,0,0,0-2.1.293l-.133.031-.012,0-.085.02-.016,0-.008,0a7.178,7.178,0,0,1-1.436.237.814.814,0,0,1-.758-.323c-.508-.791.276-3.285,2.708-8.607a3.93,3.93,0,0,0-2.576-1.263c-1.742,0-3.034,1.937-4.4,3.987l-.216.323c-1.577,2.359-3.06,4.311-5.227,4.312a3.567,3.567,0,0,1-.5-.035c.886,3,2,8.536-.49,11.869-1.388,1.857-3.722,2.8-6.939,2.8H46.2ZM76.622,33.651a1.854,1.854,0,0,0-1.43.563,1.386,1.386,0,0,0-.276,1.156,1.3,1.3,0,0,1,1.037.272,1.55,1.55,0,0,1,.13,1.247c-.069.386-.08.464-.077.468s.031-.131.084-.4l.013-.067h2.4a2.23,2.23,0,0,0,.08-2.262A2.316,2.316,0,0,0,76.622,33.651Z" transform="translate(232.259 30.17)" fill="#81cfe6"/>
      <path id="Path" d="M10.345,0c5.037,7.665,2.084,12.559,0,24.287C-12.58,29.182,9.651,4.34,10.345,0,15.382,7.665,9.129,7.388,10.345,0Z" transform="translate(430.4 183.644)" fill="#81cfe6"/>
      <path id="Path-2" data-name="Path" d="M28.868,24.923A15.734,15.734,0,0,1,22,17.312a8.44,8.44,0,0,0-4.608,6.033C11.826,23.345,5.217,2.182,0,3.574,8.7-9.792,27.3,18.147,28.52,24.923,25.477,23.809,27.129,15.641,28.868,24.923Z" transform="translate(463.205 199.385)" fill="#81cfe6"/>
      <path id="Path-3" data-name="Path" d="M28.785,0A8.249,8.249,0,0,0,35.81,1.517a7.856,7.856,0,0,0,5.781,11.689C44.97,9.458,42.747,6.246,42.747,0c13.784.892,32.638,72.188-2.312,58.625,3.024-11.957-6.937-6.692-8.182-7.317-5.425-18.917-19.832,5.8-29.169,1.428A62.658,62.658,0,0,0,.238,32.212c-2.4-14.366,14.051-14.366,19.209-27.84a27.5,27.5,0,0,0,3.468,2.945L28.785,0C30.385,1.7,28.251,3.748,28.785,0Z" transform="translate(436.961 225.619)" fill="#81cfe6"/>
      <path id="Shape-2" data-name="Shape" d="M42.466,65.587h0C30.586,63.883,28.044,52.759,25.8,42.944l-.034-.15c-2.515-10.934-7.425-11.1-13.11-11.3a27.594,27.594,0,0,1-6.275-.708A14.124,14.124,0,0,1,0,27.118,208.517,208.517,0,0,1,35.913,5.5C43.544,1.8,49.84,0,55.16,0A17.82,17.82,0,0,1,66.437,3.66c3.31,2.541,6.012,6.354,8.261,11.656a6.473,6.473,0,0,0,4.339-2.633c1.062-1.17,2.064-2.274,4-2.274a7.453,7.453,0,0,1,2.261.4c-.442,3.584-2.625,5.552-4.736,7.457-2.532,2.282-4.924,4.438-3.435,9.121a45.872,45.872,0,0,1-6.016,16.036,2.294,2.294,0,0,1-.672.116c-.894,0-1.177-.785-1.45-1.544-.266-.74-.54-1.506-1.379-1.545l-.132.063a.75.75,0,0,0-.316-.063,3.578,3.578,0,0,0-1.017.737c-.321.181-.381.247-.374.271s.014.014.037.014a.72.72,0,0,0,.169-.032c-.287.6.3,1.123.989,1.723.936.82,2,1.749,1.363,3.234-1.176.314-2.41.62-3.6.917l-.1.024c-5.166,1.281-10.509,2.607-14.67,5.233a15.406,15.406,0,0,0-7.488,13.015ZM27.753,41.812a1.919,1.919,0,0,1,1.461.391,1.509,1.509,0,0,1,.234,1.222c0,1.078,0,2.883,1.167,2.973v-.013a19.629,19.629,0,0,0-.43-5.286,2.865,2.865,0,0,0-3.009-2.308,6.549,6.549,0,0,0-1.229.129c-.409,1.21-.457,2.008-.147,2.44s.9.454,1.5.454h.456ZM54.24,4.785a10.377,10.377,0,0,1,1.5.166l.049.008a11.131,11.131,0,0,0,1.646.174,2.05,2.05,0,0,0,1.293-.342,1.62,1.62,0,0,0,.526-1.367A2.223,2.223,0,0,1,58.3,3.6a11.556,11.556,0,0,1-1.644-.174,11.57,11.57,0,0,0-1.644-.174,1.648,1.648,0,0,0-1.285.413,1.64,1.64,0,0,0-.31,1.3A1.59,1.59,0,0,1,54.24,4.785ZM65.974,41.441h0a1.188,1.188,0,0,1,.168-.252c.3-.167.743-.393,1.333-.674a.089.089,0,0,1,.052.09c-.033.244-1.106.713-1.551.836Z" transform="translate(146.966)" fill="#81cfe6"/>
      <path id="Shape-3" data-name="Shape" d="M154.226,296.454a15.045,15.045,0,0,1-2.741-.354l-.015,0c-.482-.091-1.082-.2-1.721-.3a3.093,3.093,0,0,1,1.109-2.215,3.828,3.828,0,0,0,1.222-2.187,2.794,2.794,0,0,0-1.136-.315c-.9,0-1.071.9-1.235,1.765l0,.018c-.165.861-.335,1.75-1.2,1.751a2.784,2.784,0,0,1-1.173-.345,27.154,27.154,0,0,1-3.1-9.5,41.113,41.113,0,0,1-.046-10.253c.761-7.022,2.894-14.421,4.958-21.577,4.116-14.279,8-27.764,1.778-38.251-1.581-2.6-3.454-5.145-5.437-7.841-4.871-6.622-9.907-13.468-11.053-21.71-.7-5.065.931-9.373,2.514-13.539,2.087-5.5,4.059-10.687.982-17.359a2.443,2.443,0,0,0-1.925.673,2.7,2.7,0,0,0-.4,2.2,16.812,16.812,0,0,1-10.576-13.2,80.675,80.675,0,0,1-16.491-6.108c-4.625-2.076-9.022-6.227-13.441-12.692a154.233,154.233,0,0,1-9.865-17.6l-.008-.017-.013-.024-.007-.015c-.862-1.712-1.676-3.329-2.476-4.861.494,4.957,2.461,7.983,4.362,10.909a24.135,24.135,0,0,1,3.883,8.222c-.113.006-.195.008-.275.008-2.357,0-4.477-1.7-6.478-5.183a67.6,67.6,0,0,1-4.39-10.483l0-.007-.008-.022c-1.235-3.469-2.3-6.466-3.454-8.025a52.26,52.26,0,0,1-6.519-12.1,122.741,122.741,0,0,1-3.757-12.079l-.008-.031c-2.036-7.459-4.141-15.172-9.254-22.858-.573,0-.894.092-1.009.286-.163.275.093.741.417,1.332l0,.005c.6,1.094,1.42,2.593.59,4.3A37.976,37.976,0,0,0,41.125,38.914c-3.138-1.651-5.289-2.42-6.768-2.42a3.4,3.4,0,0,0-2.9,1.717l-.006.008-.007.009-.006.008c-.093.115-.189.235-.287.352a5.473,5.473,0,0,1-4.82,2.094c-.395,0-.816-.021-1.251-.062V37.3c-2.178,4.729-3.418,7.279-5.639,9.045-2.181,1.734-5.258,2.726-11.388,4.7l-.009,0-.011,0c-.9.29-2.02.65-3.3,1.067a62.941,62.941,0,0,1,10.575-8.982A28.534,28.534,0,0,0,6.5,37.662l0,0c-1.419-.6-2.275-.967-2.356-1.559-.125-.913,1.576-2.321,6.515-6.259A1.585,1.585,0,0,0,8.9,28.633a11.948,11.948,0,0,0-3.053.645l-.016.005-.077.022a12.671,12.671,0,0,1-3.279.671,2.238,2.238,0,0,1-1.774-.67c-.631-.7-.836-1.968-.627-3.865l.009,0a20.1,20.1,0,0,1,4.561-.849c1.646,0,2.957.644,4.84,2.378a5.914,5.914,0,0,0-7.08-5.838,13.631,13.631,0,0,1,5.915-5.705,16.559,16.559,0,0,1,7.289-1.447,59.086,59.086,0,0,1,8.668.884h.009c2.285.346,4.442.673,6.53.789A51.849,51.849,0,0,1,39.8,17.022l.007,0h.006a33.357,33.357,0,0,0,7.546,1.054,27.735,27.735,0,0,0,5.682-.633A38.443,38.443,0,0,1,77.6,19.693a2.063,2.063,0,0,0,1.134-1.252c.185-.811-.43-1.7-1.08-2.633-.791-1.14-1.609-2.319-1.219-3.57a10.13,10.13,0,0,1-6.517,2.379,10.04,10.04,0,0,1-4.059-.851,6.133,6.133,0,0,1,1.492-4.742c1.393-1.469,3.794-2.246,6.944-2.246a32.011,32.011,0,0,1,11.54,2.508c3.628,1.506,5.9,3.223,5.925,4.479.761-.13,1.132-.384,1.1-.754C92.775,11.97,89.409,10,84.289,8s-10.09-3.3-12.658-3.3a5.063,5.063,0,0,0-1.021.09C71.914,1.519,73.839,0,76.67,0A21.9,21.9,0,0,1,83.5,1.669l.116.041a23.02,23.02,0,0,0,7.155,1.711,6.554,6.554,0,0,0,4.486-1.6c.238,0,.282.937.348,2.355.186,3.956.533,11.318,5.691,11.318a7.348,7.348,0,0,0,2.206-.38A3.754,3.754,0,0,1,103.086,18c-.618.781-1.716.879-2.878.984-1.551.14-3.155.286-3.784,2.061a3.406,3.406,0,0,0,3.451,2.791,7.585,7.585,0,0,0,5.157-2.5,6.45,6.45,0,0,0,1.967-4.7,3.644,3.644,0,0,1,1.285-.285c1.492,0,1.737,1.583,1.974,3.114l0,.022c.235,1.521.478,3.093,1.929,3.093a2.824,2.824,0,0,0,.724-.105,2.438,2.438,0,0,0,1.648-1.186c.761-1.437-.061-3.785-.787-5.855l0-.008a11.958,11.958,0,0,1-.859-3.28,26.05,26.05,0,0,1,10.576,10.329c1.632-.789,2.487-1.625,2.61-2.556.2-1.491-1.545-3-3.229-4.461l0,0,0,0c-1.749-1.515-3.4-2.945-3.071-4.353.3-1.279,2.271-2.376,6.028-3.352v5.928a20.133,20.133,0,0,1,21.958,0,50.581,50.581,0,0,1,9.332,5.67c2.4,1.79,6.567,5.2,7.517,7.893a6.368,6.368,0,0,1-3.136,1c-1.652,0-2.958-.955-4.765-2.277l-.033-.023-.312-.229a1.572,1.572,0,0,0-.692,1.118c-.025.726.73,1.438,1.6,2.263,1.418,1.338,3.183,3,2.674,5.6a10.442,10.442,0,0,1-1.255.076c-2.6,0-5.021-.97-7.583-2l-.03-.012-.743-.3a26.515,26.515,0,0,0-10.2-2.307c-.486,0-.968.016-1.433.047.5-2.347,2.286-3.145,4.012-3.916,1.987-.889,4.042-1.809,4.233-5.066a17.3,17.3,0,0,0-6.99,2.965c1.017-2.219,1.165-3.916.439-5.047-.629-.981-1.914-1.5-3.716-1.5a13.434,13.434,0,0,0-3.8.618c.446,1.968.806,3.947,1.154,5.861l.012.067a14.314,14.314,0,0,1-8.246,0c.391,2.155,2.724,2.88,4.979,3.58,1.8.56,3.5,1.089,3.972,2.318.3.787.069,1.8-.706,3.083a10.176,10.176,0,0,0-7.7-3.394c-5.294,0-10.575,3.659-13.455,9.321a15.327,15.327,0,0,0,11.114,8.982c5.818,1.73,6.727,3.84,7.6,5.882.729,1.695,1.418,3.3,4.763,4.628,2.908-4.626,2.458-8.529,2.023-12.3-.426-3.67-.828-7.136,1.562-11.23.455-.017.884-.026,1.274-.026a20.69,20.69,0,0,1,11,2.793,38.386,38.386,0,0,1,7.51,6.381c3.734,3.762,7.595,7.651,14.273,9.984-1.332,3.889-4.7,5.61-7.955,7.274a23.23,23.23,0,0,0-4.951,3.056,7.755,7.755,0,0,0-2.419-4.4l-5.826,4.4a65.518,65.518,0,0,1,14.071,5.927c-.245,2.087-4.192,3.775-8.763,5.729l-.01,0c-5.5,2.353-11.739,5.021-13.543,9.176-.758,1.7-1.226,2.562-1.5,3.075l-.005.01a3.986,3.986,0,0,0-.572,2.466v.043c-.043.71-.108,1.782-.245,3.388-3.736,3.259-5.706,5.529-6.586,7.591-.844,1.976-.661,3.66-.409,5.991a35.844,35.844,0,0,1-.085,10.041c-1-1-1.965-2.014-2.816-2.9l-.075-.078c-4.4-4.614-7.881-8.258-12.628-8.258-3.271,0-6.883,1.716-11.368,5.4a46.892,46.892,0,0,0,2.061,17.335c1.183,2.081,2.378,3.092,3.652,3.092,1.652,0,3.217-1.656,4.874-3.41l.194-.205c1.526-1.611,3.426-3.616,5.493-3.616.063,0,.136,0,.216.007,0,8.916,1.266,10.735,2.607,12.662,1.155,1.66,2.464,3.542,3.128,10.242.384,3.876,1.9,5.841,4.519,5.841,2.172,0,5.08-1.323,8.889-4.045,1.179-.842,2.295-1.711,3.11-2.344l.032-.025.015-.012.013-.01a10.458,10.458,0,0,1,2.393-1.654.134.134,0,0,1,.029,0,11.664,11.664,0,0,0-1.255,7.366c1.133-.678,2.028-1.258,2.747-1.724,2.277-1.476,3.317-2.149,5.739-2.149a46.86,46.86,0,0,1,6.007.616,1.436,1.436,0,0,1,1.387-.725,3.247,3.247,0,0,1,.432.032,9.26,9.26,0,0,0,.049.968l.084.012.046.007c-.006.241-.016.466-.03.671.836,4.488,4.965,6.81,8.958,9.055,3.3,1.853,6.41,3.6,7.056,6.407.42,1.822-.235,3.949-2,6.5.2.97.534,1.423,1.043,1.423a3.571,3.571,0,0,0,1.6-.74l.1-.065.039-.026.034-.022a4.173,4.173,0,0,1,2.089-.851,1.638,1.638,0,0,1,.924.281,10.751,10.751,0,0,0-2.331,5.928,6.753,6.753,0,0,1,6.106-3.141,16.342,16.342,0,0,1,9.067,3.29,17.818,17.818,0,0,1,6.493,8.173,11.686,11.686,0,0,1,.268,7.474,16.406,16.406,0,0,1-5.533,7.736,22.806,22.806,0,0,1-14.071,26.946c0,6.075-2.465,9.906-5.075,13.963l-.007.011a39.122,39.122,0,0,0-4.329,8.122c-.614-.4-1.283-.807-1.771-1.105l0,0-.03-.019c-.939-.576-1.91-1.17-2.833-1.822.19.34-1.354,6.012-3.9,10.345-1.958,3.335-3.968,5.027-5.973,5.027a3.929,3.929,0,0,1-1.98-.568c1.771,2.137-.046,7.422-1.97,13.017-2.129,6.192-4.331,12.595-2.2,15.828a5.062,5.062,0,0,0,4.171,2.053A5.953,5.953,0,0,1,154.226,296.454ZM140.48,72.625c-3.352,0-4.766,2.561-6.263,5.273-.377.683-.766,1.389-1.186,2.041-.163.07-.328.137-.49.2h.358q.067-.1.132-.2a21.159,21.159,0,0,0,8.92-7.164A7.778,7.778,0,0,0,140.48,72.625ZM124.3,68.285a20.941,20.941,0,0,1,0,5.051c-.221,2.988-.45,6.077,1.169,6.806.693-.509.832-.8.826-.95a.207.207,0,0,0-.107-.175,15.085,15.085,0,0,0,.551-3.932c.158-2.712.308-5.272,2.315-5.272,1.664,0,1.784,1.577,1.9,3.1.114,1.5.221,2.924,1.692,2.924a3.7,3.7,0,0,0,1.068-.188c-.432-1.866-.452-3.115-.057-3.612a.659.659,0,0,1,.541-.254,3.37,3.37,0,0,1,1.846.991,4.3,4.3,0,0,0-.817-3.461c-.779-.859-2.079-1.259-4.093-1.259-.963,0-2.009.091-2.85.164l-.027,0-.1.009c-.879.077-1.787.157-2.571.157a6.587,6.587,0,0,1-1.281-.1Zm.335-6.829a5.918,5.918,0,0,0-5.891,5.393,3.657,3.657,0,0,1,2.81-1.237,10.083,10.083,0,0,1,2.669.5l.008,0,.107.031.012,0a9.1,9.1,0,0,0,2.354.464c1.368,0,2.2-.84,2.705-2.724A5.931,5.931,0,0,0,124.63,61.456Z" transform="translate(0 27.547)" fill="#81cfe6"/>
      <path id="Path-4" data-name="Path" d="M59.049,27.729a29.578,29.578,0,0,0-59.039,0A28.571,28.571,0,0,0,4.967,44.551h0L29.033,85.263,53.1,44.819h0a29.3,29.3,0,0,0,5.949-17.09Z" transform="translate(111.537 14.429)" fill="#d85354"/>
      <path id="Path-5" data-name="Path" d="M19.683,0A19.675,19.675,0,1,0,39.366,19.676,19.68,19.68,0,0,0,19.683,0Z" transform="translate(120.722 22.3)" fill="#fff"/>
      <path id="Path-6" data-name="Path" d="M59.049,29.085A29.523,29.523,0,1,0,5.038,46h0L29.073,86.575,53.108,46h0A29.59,29.59,0,0,0,59.049,29.085Z" transform="translate(52.488 55.093)" fill="#d85354"/>
      <path id="Path-7" data-name="Path" d="M39.366,19.585a19.679,19.679,0,1,0-5.733,13.972A19.68,19.68,0,0,0,39.366,19.585Z" transform="translate(61.673 65.587)" fill="#fff"/>
      <path id="Path-8" data-name="Path" d="M59.049,29.054a29.517,29.517,0,1,0-54.011,16.9h0L29.073,86.575,53.108,45.951h0A29.54,29.54,0,0,0,59.049,29.054Z" transform="translate(146.966 132.486)" fill="#d85354"/>
      <path id="Path-9" data-name="Path" d="M39.365,19.859A19.684,19.684,0,1,0,19.682,39.352,19.676,19.676,0,0,0,39.365,19.859Z" transform="translate(157.463 140.356)" fill="#fff"/>
      <path id="Path-10" data-name="Path" d="M59.049,29.145A29.517,29.517,0,1,0,5.039,45.952h0L29.073,86.575,53.108,45.952h0a29.27,29.27,0,0,0,5.941-16.806Z" transform="translate(267.688 1.312)" fill="#d85354"/>
      <path id="Path-11" data-name="Path" d="M39.366,19.676A19.683,19.683,0,1,0,19.683,39.352,19.68,19.68,0,0,0,39.366,19.676Z" transform="translate(278.185 9.182)" fill="#fff"/>
      <path id="Path-12" data-name="Path" d="M59,30.847A29.158,29.158,0,0,0,44.755,4.19a29.776,29.776,0,0,0-30.46,0A29.158,29.158,0,0,0,.045,30.847,28.682,28.682,0,0,0,5.446,47.6h0L29.569,87.887,53.6,47.6h0A28.682,28.682,0,0,0,59,30.847Z" transform="translate(406.78 59.028)" fill="#d85354"/>
      <path id="Path-13" data-name="Path" d="M39.366,19.767A19.684,19.684,0,1,0,19.774,39.352,19.676,19.676,0,0,0,39.366,19.767Z" transform="translate(417.278 70.834)" fill="#fff"/>
    </g>
  </g>
</svg>
