<svg xmlns="http://www.w3.org/2000/svg" xmlns:xlink="http://www.w3.org/1999/xlink" width="450" height="70" viewBox="0 0 450 70">
  <defs>
    <filter id="Rectangle" x="0" y="0" width="450" height="70" filterUnits="userSpaceOnUse">
      <feOffset dy="1" input="SourceAlpha"/>
      <feGaussianBlur stdDeviation="0.5" result="blur"/>
      <feFlood flood-opacity="0.502"/>
      <feComposite operator="in" in2="blur"/>
      <feComposite in="SourceGraphic"/>
    </filter>
  </defs>
  <g id="map-input" transform="translate(-307.5 -872.5)">
    <g transform="matrix(1, 0, 0, 1, 307.5, 872.5)" filter="url(#Rectangle)">
      <rect id="Rectangle-2" data-name="Rectangle" width="447" height="67" rx="2" transform="translate(1.5 0.5)" fill="#4a4a4a"/>
    </g>
    <g id="choose" transform="translate(343 884)">
      <path id="Fill_3" data-name="Fill 3" d="M10.744,5.3A5.338,5.338,0,0,0,5.372,0,5.29,5.29,0,0,0,2.75,9.93l.112-3.519A2.625,2.625,0,0,1,5.5,3.8h.15A2.068,2.068,0,0,1,7.735,5.858v4.2A5.3,5.3,0,0,0,10.744,5.3" transform="translate(11.626 11.308)" fill="#9b9b9b"/>
      <path id="Fill_4" data-name="Fill 4" d="M13.934,2.055A2.068,2.068,0,0,0,11.853,0H11.7A2.625,2.625,0,0,0,9.061,2.608L8.7,13.879c-.056.239-.088,5.629-.088,5.629-.461-.465-.975-1-1.437-1.5A7.789,7.789,0,0,0,2.8,15.869a2.2,2.2,0,0,0-1.575.277,3.252,3.252,0,0,0-.327.282c-.679.66-1.192,1.727-.718,2.509a2.706,2.706,0,0,0,.932.806A6.538,6.538,0,0,1,3.075,21.2c1.052,1.329,3.487,4.3,4.983,5.884.311.191.97.84,1.281,1a11.638,11.638,0,0,1,1.984,1.46,9.668,9.668,0,0,0,1.446.862,9.824,9.824,0,0,0,4.921,1.21c2.1,0,4,.124,5.412-1.1h.075l.037-.092a6.833,6.833,0,0,0,2.323-5.076V15.856a2.551,2.551,0,0,0-1.432-2.493,2.378,2.378,0,0,0-1.756.08l-.12.005-.037,0a2.007,2.007,0,0,0-1.661-1.556,2.805,2.805,0,0,0-2.173.435,2.291,2.291,0,0,0-2.441-1.282A2.844,2.844,0,0,0,13.934,12.1V2.055" transform="translate(5.427 15.111)" fill="#fff"/>
      <path id="Fill_5" data-name="Fill 5" d="M28.984,25.417l1.066,1.172a.492.492,0,0,0,.757-.033A16.517,16.517,0,0,0,34,16.784,16.911,16.911,0,0,0,17,0a17.8,17.8,0,0,0-1.94.106A16.933,16.933,0,0,0,.1,14.93,16.584,16.584,0,0,0,3.186,26.556a.494.494,0,0,0,.759.034L5.01,25.42a.475.475,0,0,0,.034-.595,14.082,14.082,0,0,1-2.513-8.461,14.476,14.476,0,0,1,28.938.42,14.1,14.1,0,0,1-2.522,8.039.475.475,0,0,0,.037.595" transform="translate(0 0)" fill="#fff"/>
      <path id="Fill_6" data-name="Fill 6" d="M17.438,13.483l1.129,1.24a.5.5,0,0,0,.8-.107A9.846,9.846,0,0,0,20.46,10.1,10.173,10.173,0,0,0,12.327.216a10.329,10.329,0,0,0-4.2,0A10.173,10.173,0,0,0,0,10.1a9.856,9.856,0,0,0,1.087,4.515.5.5,0,0,0,.806.107l1.128-1.24a.478.478,0,0,0,.085-.509A7.469,7.469,0,0,1,2.526,10.1,7.645,7.645,0,0,1,7.591,2.955a7.835,7.835,0,0,1,5.276,0A7.643,7.643,0,0,1,17.931,10.1a7.512,7.512,0,0,1-.577,2.874.479.479,0,0,0,.083.509" transform="translate(6.768 6.683)" fill="#9b9b9b"/>
    </g>
    <path id="Line_6" data-name="Line 6" d="M2,3.333V40" transform="translate(421 884)" fill="none" stroke="#fff" stroke-linecap="square" stroke-miterlimit="10" stroke-width="1"/>
  </g>
</svg>
