<svg id="kaynaklar" xmlns="http://www.w3.org/2000/svg" xmlns:xlink="http://www.w3.org/1999/xlink" width="661" height="478" viewBox="0 0 661 478">
  <defs>
    <linearGradient id="linear-gradient" x1="0.5" x2="0.5" y2="1" gradientUnits="objectBoundingBox">
      <stop offset="0" stop-color="#c5a584"/>
      <stop offset="1" stop-color="#f9ca2a"/>
    </linearGradient>
    <linearGradient id="linear-gradient-2" x1="0.5" x2="0.5" y2="1" gradientUnits="objectBoundingBox">
      <stop offset="0" stop-color="#7677ab"/>
      <stop offset="1" stop-color="#ebf6f9"/>
    </linearGradient>
    <clipPath id="clip-path">
      <path id="Oval" d="M345.294,474.362c218.464,34.134,255.124-180.6,307.046-280.4S512.864,0,340.81,0,109.062,89.668,29.281,193.964C-19.288,257.457-8.133,353.635,67.968,387.928,106.873,405.46,296.84,466.791,345.294,474.362Z" fill="none"/>
    </clipPath>
  </defs>
  <path id="Oval-2" data-name="Oval" d="M285.05,401.826C477.16,431.854,559,325.43,559,231.191S446.463,0,295.165,0-48.445,136.952,11.1,231.191c39.4,62.359,73.576,99.715,140.5,129.883C185.81,376.5,242.441,395.165,285.05,401.826Z" transform="translate(15 12)" fill="url(#linear-gradient)"/>
  <path id="Oval-3" data-name="Oval" d="M303.5,416.8C495.527,446.8,527.751,258.119,573.388,170.429S450.792,0,299.563,0,95.862,78.788,25.737,170.429c-42.69,55.788-32.885,140.3,34,170.429C93.938,356.262,260.914,410.151,303.5,416.8Z" transform="translate(1 47)" fill="url(#linear-gradient-2)"/>
  <path id="Oval-4" data-name="Oval" d="M345.294,474.362c218.464,34.134,255.124-180.6,307.046-280.4S512.864,0,340.81,0,109.062,89.668,29.281,193.964C-19.288,257.457-8.133,353.635,67.968,387.928,106.873,405.46,296.84,466.791,345.294,474.362Z" fill="none"/>
  <g id="kaynaklar-2" data-name="kaynaklar" clip-path="url(#clip-path)">
    <g id="vektor" transform="translate(80 5)">
      <path id="Fill_22" data-name="Fill 22" d="M62.292,35.821c-14.25,8.193-37.354,8.193-51.6,0s-14.25-21.481,0-29.676,37.354-8.193,51.6,0,14.25,21.481,0,29.676" transform="translate(210.824 354.676)" fill="#c6e0ec"/>
      <path id="Fill_23" data-name="Fill 23" d="M62.292,35.818c-14.25,8.2-37.354,8.2-51.6,0s-14.25-21.478,0-29.673,37.354-8.193,51.6,0,14.25,21.48,0,29.673" transform="translate(97.304 418.301)" fill="#c6e0ec"/>
      <path id="Fill_24" data-name="Fill 24" d="M62.29,35.819c-14.25,8.195-37.353,8.195-51.6,0s-14.25-21.479,0-29.674,37.353-8.193,51.6,0,14.25,21.481,0,29.674" transform="translate(8.109 467.035)" fill="#c6e0ec"/>
      <path id="Fill_25" data-name="Fill 25" d="M62.29,35.82c-14.25,8.194-37.352,8.194-51.6,0s-14.25-21.48,0-29.674,37.352-8.2,51.6,0,14.25,21.479,0,29.674" transform="translate(350.022 284.282)" fill="#c6e0ec"/>
      <path id="Fill_26" data-name="Fill 26" d="M1.351,0V8.122H.3L0,4.55,1.351,0" transform="translate(212.176 397.995)" fill="#ed9831"/>
      <path id="Fill_27" data-name="Fill 27" d="M36.315,11.786l-4.428-.175-1.754-.07-3.428-1.277L25.274,6.022,26.129,0,25.007,3.659,15.8,8l-2.407-.472L3.576,2.06V5.6l4.148,7.1L4.662,13.877l-.106-.141-1.308.413L0,15.146v3.548L12.608,18.6l7.747,7.122L25.016,17.4l11.472-2.068V11.8l-.174-.011" transform="translate(186.498 397.995)" fill="#ed9831"/>
      <path id="Fill_28" data-name="Fill 28" d="M16.217.379V4.056L4.686,6.213,0,14.891v-7.6L3.229,1.336,11.592.172,12.824,0l3.218.355.175.024" transform="translate(208.121 408.824)" fill="#d6852f"/>
      <path id="Fill_29" data-name="Fill 29" d="M3.573,2.121,15.786,4.577,26.123,0l-.164,7.655,10.53,4.422L24.172,14.348,20.344,21.66,12.9,15.408l-12.9.1L7.715,9.371,3.573,2.121" transform="translate(186.498 397.995)" fill="#f9ca2a"/>
      <path id="Fill_30" data-name="Fill 30" d="M345.968,6.347,345.1,9.117l-3.582.406-.537.064a24.653,24.653,0,0,1,.537,5.215V281.022L12.985,470.564l4.21.8-6.72,11.916L0,478.052V211.83c0-12.451,7.571-26.9,16.921-32.3L324.6,2.022C328.563-.264,332.185-.54,335.076.833l.013-.013.221.1a.349.349,0,0,0,.091.053l6.121,3.109,4.446,2.261" fill="#acd1d7"/>
      <path id="Fill_31" data-name="Fill 31" d="M345.968,6.337,341.522,34.97,12.985,224.208l4.21.784L10.475,236.9,0,231.683V211.475c0-12.43,7.571-26.859,16.921-32.247L324.6,2.018c3.962-2.282,7.584-2.557,10.475-1.186l.013-.013.221.1a.349.349,0,0,0,.091.053l10.567,5.362" fill="#4b65a1"/>
      <path id="Fill_32" data-name="Fill 32" d="M341.914,0V245.789L0,442.668V196.878L341.914,0" transform="translate(9.46 41.965)" fill="#ebf6f9"/>
      <path id="Fill_33" data-name="Fill 33" d="M341.914,34.723V12.952c0-11.57-8.149-16.259-18.2-10.474L18.2,178.291C8.15,184.076,0,198.146,0,209.714v21.772L341.914,34.723" transform="translate(9.46 6.769)" fill="#26377a"/>
      <path id="Fill_34" data-name="Fill 34" d="M9.46,3.367A10.426,10.426,0,0,1,4.73,11.54C2.118,13.043,0,11.823,0,8.814A10.424,10.424,0,0,1,4.73.644C7.343-.86,9.46.359,9.46,3.367" transform="translate(22.974 194.936)" fill="#6cb644"/>
      <path id="Fill_35" data-name="Fill 35" d="M9.46,3.367a10.422,10.422,0,0,1-4.731,8.171C2.118,13.044,0,11.824,0,8.814A10.424,10.424,0,0,1,4.729.644C7.342-.86,9.46.359,9.46,3.367" transform="translate(37.84 186.814)" fill="#f7c823"/>
      <path id="Fill_36" data-name="Fill 36" d="M9.46,3.367a10.42,10.42,0,0,1-4.732,8.172C2.117,13.043,0,11.825,0,8.816A10.423,10.423,0,0,1,4.728.644C7.342-.86,9.46.36,9.46,3.367" transform="translate(51.355 178.691)" fill="#d8232a"/>
      <path id="Fill_37" data-name="Fill 37" d="M62.968,1.349,11.361,30.811C5.086,34.394,0,44,0,52.278V58.21L74.329,15.773V9.842c0-8.275-5.087-12.077-11.361-8.494" transform="translate(70.275 144.848)" fill="#4b65a1"/>
      <path id="Fill_38" data-name="Fill 38" d="M62.967,1.349l-51.6,29.464C5.087,34.394,0,44,0,52.28V58.21L74.329,15.773V9.842c0-8.275-5.087-12.077-11.362-8.494" transform="translate(144.604 102.883)" fill="#212851"/>
      <path id="Fill_39" data-name="Fill 39" d="M62.968,1.348,11.361,30.812C5.086,34.4,0,44,0,52.279V58.21L74.329,15.772V9.842c0-8.273-5.086-12.075-11.361-8.494" transform="translate(218.933 59.564)" fill="#212851"/>
      <path id="Fill_40" data-name="Fill 40" d="M136.5,210.766,0,289.7V78.931L136.5,0V210.766" transform="translate(24.326 167.862)" fill="#fffffe"/>
      <path id="Fill_41" data-name="Fill 41" d="M0,158.386V72.865L125.684,0V85.519L0,158.386" transform="translate(29.732 178.691)" fill="#d8232a"/>
      <path id="Fill_42" data-name="Fill 42" d="M0,69.04V63.181L109.466,0V5.861L0,69.04" transform="translate(37.84 254.5)" fill="#57619d"/>
      <path id="Fill_43" data-name="Fill 43" d="M0,58.21v-5.9L90.546,0V5.9L0,58.21" transform="translate(58.112 254.5)" fill="#212851"/>
      <path id="Fill_44" data-name="Fill 44" d="M33.786,11.976c0,10.7-7.564,23.7-16.893,29.052S0,42.041,0,31.344,7.564,7.64,16.893,2.291s16.893-1.012,16.893,9.685" transform="translate(75.681 234.194)" fill="#fffffe"/>
      <path id="Fill_45" data-name="Fill 45" d="M6.7,39.258c-4.2,0-6.7-3.613-6.7-9.667C0,19.449,6.943,7.072,15.478,2a12.535,12.535,0,0,1,6.2-2c4.2,0,6.7,3.613,6.7,9.665,0,10.144-6.943,22.519-15.478,27.592a12.557,12.557,0,0,1-6.2,2" transform="translate(79.735 236.902)" fill="#263779"/>
      <path id="Fill_46" data-name="Fill 46" d="M0,0,13.514,2.07,0,20.306V0" transform="translate(89.195 249.085)" fill="#fffffe"/>
      <path id="Fill_47" data-name="Fill 47" d="M2.7,10.51,0,12.184V1.674L2.7,0V10.51" transform="translate(56.76 303.234)" fill="#fffffe"/>
      <path id="Fill_48" data-name="Fill 48" d="M79.735,5.162,0,51.441V46.28L79.735,0V5.162" transform="translate(32.435 297.819)" fill="#bdd5d6"/>
      <path id="Fill_49" data-name="Fill 49" d="M79.735,5.162,0,51.441V46.277L79.735,0V5.162" transform="translate(32.435 307.295)" fill="#bdd5d6"/>
      <path id="Fill_50" data-name="Fill 50" d="M79.735,5.162,0,51.441V46.28L79.735,0V5.162" transform="translate(32.435 315.418)" fill="#bdd5d6"/>
      <path id="Fill_51" data-name="Fill 51" d="M21.623,24.368,0,36.551V12.184L21.623,0V24.368" transform="translate(132.441 272.098)" fill="#bdd5d5"/>
      <path id="Fill_52" data-name="Fill 52" d="M14.866,6.577,0,14.891v-.708C0,9.25,3.1,3.518,6.919,1.381L7.949.805c3.82-2.139,6.917.131,6.917,5.064v.708" transform="translate(135.144 292.404)" fill="#fffffe"/>
      <path id="Fill_53" data-name="Fill 53" d="M8.109,2.993a9.339,9.339,0,0,1-4.055,7.264C1.816,11.595,0,10.51,0,7.836A9.342,9.342,0,0,1,4.054.572C6.293-.764,8.109.319,8.109,2.993" transform="translate(139.198 280.221)" fill="#fffffe"/>
      <path id="Fill_54" data-name="Fill 54" d="M79.735,5.162,0,51.441V46.28L79.735,0V5.162" transform="translate(32.435 331.662)" fill="#bdd5d6"/>
      <path id="Fill_55" data-name="Fill 55" d="M79.735,5.163,0,51.441V46.278L79.735,0V5.163" transform="translate(32.435 341.138)" fill="#bdd5d6"/>
      <path id="Fill_56" data-name="Fill 56" d="M79.735,5.162,0,51.441V46.28L79.735,0V5.162" transform="translate(32.435 351.968)" fill="#bdd5d6"/>
      <path id="Fill_57" data-name="Fill 57" d="M21.623,24.366,0,36.551V12.182L21.623,0V24.366" transform="translate(132.441 308.649)" fill="#2a3a74"/>
      <path id="Fill_58" data-name="Fill 58" d="M14.866,6.577,0,14.891v-.708C0,9.249,3.1,3.517,6.919,1.38L7.949.8c3.82-2.137,6.917.131,6.917,5.065v.708" transform="translate(135.144 328.955)" fill="#fffffe"/>
      <path id="Fill_59" data-name="Fill 59" d="M8.109,2.994a9.338,9.338,0,0,1-4.055,7.264C1.816,11.594,0,10.509,0,7.836A9.341,9.341,0,0,1,4.054.572C6.293-.764,8.109.319,8.109,2.994" transform="translate(139.198 316.771)" fill="#fffffe"/>
      <path id="Fill_60" data-name="Fill 60" d="M79.735,5.163,0,51.441V46.278L79.735,0V5.163" transform="translate(32.435 368.213)" fill="#bdd5d6"/>
      <path id="Fill_61" data-name="Fill 61" d="M79.735,5.162,0,51.441V46.278L79.735,0V5.162" transform="translate(32.435 377.689)" fill="#bdd5d6"/>
      <path id="Fill_62" data-name="Fill 62" d="M79.735,5.162,0,51.441V46.278L79.735,0V5.162" transform="translate(32.435 385.811)" fill="#bdd5d6"/>
      <path id="Fill_63" data-name="Fill 63" d="M21.623,24.366,0,36.551V12.184L21.623,0V24.366" transform="translate(132.441 343.846)" fill="#505e9b"/>
      <path id="Fill_64" data-name="Fill 64" d="M14.866,6.578,0,14.891v-.706C0,9.249,3.1,3.517,6.919,1.381L7.949.8c3.82-2.136,6.917.132,6.917,5.065v.709" transform="translate(135.144 364.152)" fill="#fffffe"/>
      <path id="Fill_65" data-name="Fill 65" d="M8.109,2.994a9.338,9.338,0,0,1-4.055,7.263C1.816,11.594,0,10.511,0,7.837A9.342,9.342,0,0,1,4.054.572C6.293-.764,8.109.321,8.109,2.994" transform="translate(139.198 351.968)" fill="#fffffe"/>
      <path id="Fill_66" data-name="Fill 66" d="M174.335,0,0,100.594V211.181L174.335,110.59V0" transform="translate(171.633 161.093)" fill="#212851"/>
      <path id="Fill_67" data-name="Fill 67" d="M10.812,0l3.34,5.776,7.471-3L16.217,11.8l1.276,7.7-6.682-.194L4.13,27.074l1.276-9.15L0,15.019l7.471-5.46L10.812,0" transform="translate(181.093 265.33)" fill="#f9ca2a"/>
      <path id="Fill_68" data-name="Fill 68" d="M110.818,7.74,0,71.747V64.005L110.818,0V7.74" transform="translate(227.042 188.168)" fill="#57619d"/>
      <path id="Fill_69" data-name="Fill 69" d="M0,43.771v7.67L75.681,7.669V0L0,43.771" transform="translate(262.179 188.168)" fill="#f9ca2a"/>
      <path id="Fill_70" data-name="Fill 70" d="M10.812,0l3.34,5.773,7.471-3L16.217,11.8l1.276,7.7-6.682-.194L4.13,27.074l1.276-9.151L0,15.018l7.471-5.46L10.812,0" transform="translate(181.093 299.173)" fill="#f9ca2a"/>
      <path id="Fill_71" data-name="Fill 71" d="M110.818,7.743,0,71.747V64.006L110.818,0V7.743" transform="translate(227.042 223.364)" fill="#57619d"/>
      <path id="Fill_72" data-name="Fill 72" d="M0,43.77v7.671L75.681,7.671V0L0,43.77" transform="translate(262.179 223.364)" fill="#f9ca2a"/>
      <path id="Fill_73" data-name="Fill 73" d="M10.812,0l3.34,5.775,7.471-3L16.217,11.8l1.276,7.7-6.682-.194L4.13,27.074l1.276-9.147L0,15.02,7.471,9.558,10.812,0" transform="translate(181.093 333.016)" fill="#f9ca2a"/>
      <path id="Fill_74" data-name="Fill 74" d="M110.818,7.742,0,71.747V64.005L110.818,0V7.742" transform="translate(227.042 255.854)" fill="#57619d"/>
      <path id="Fill_75" data-name="Fill 75" d="M0,43.771v7.67L75.681,7.67V0L0,43.771" transform="translate(262.179 255.854)" fill="#f9ca2a"/>
      <path id="Fill_76" data-name="Fill 76" d="M81.086,14.412h-6.76L49.663,0,7.653,24.548,0,25.07v3.95L31.423,47.38,66.459,26.908l13.755-.793v-3.95l-4.129-.882,5-2.921v-3.95" transform="translate(200.013 406.117)" fill="#273576"/>
      <path id="Fill_77" data-name="Fill 77" d="M49.663,0,0,29.019,31.423,47.38,66.459,26.907l13.755-.793-6.2-3.623,7.07-4.131L49.663,0" transform="translate(200.013 400.702)" fill="#4b65a1"/>
      <path id="Fill_78" data-name="Fill 78" d="M43.246,1.678,2.979,24.367,0,22.689,40.267,0l2.979,1.678" transform="translate(210.824 407.471)" fill="#fffffe"/>
      <path id="Fill_79" data-name="Fill 79" d="M43.246,1.678,2.979,24.367,0,22.687,40.267,0l2.979,1.678" transform="translate(218.933 412.886)" fill="#fffffe"/>
      <path id="Fill_80" data-name="Fill 80" d="M43.246,1.678,2.979,24.367,0,22.687,40.267,0l2.979,1.678" transform="translate(225.69 416.947)" fill="#fffffe"/>
      <path id="Fill_81" data-name="Fill 81" d="M0,12.617.794,9.075s6.908-1.74,8.1-6.138L17.627,0a17.344,17.344,0,0,1,2.644,7.811l-3.359,2.95L6.908,14.891H1.429L0,12.617" transform="translate(132.441 416.947)" fill="#efa67f"/>
      <path id="Fill_82" data-name="Fill 82" d="M0,7.714a74.115,74.115,0,0,0,10.777,5.345,8.078,8.078,0,0,0,8.329-1.784c2.412-2.3,5.91-5.019,9.09-5.2,0,0,1.049-5.906-1.856-6.068s-8.607,8.172-12.41,7.242A8.953,8.953,0,0,1,8.594,3.886,9.415,9.415,0,0,0,0,7.714" transform="translate(124.332 422.362)" fill="#ac3d68"/>
      <path id="Fill_83" data-name="Fill 83" d="M1.96,0,2.7,1.121,2.332,10.83H.879L0,.547,1.96,0" transform="translate(148.658 427.777)" fill="#ac3d68"/>
      <path id="Fill_84" data-name="Fill 84" d="M0,12.617.794,9.075s6.908-1.74,8.1-6.14L17.629,0a17.328,17.328,0,0,1,2.643,7.809l-3.357,2.95L6.908,14.891H1.429L0,12.617" transform="translate(112.169 423.715)" fill="#efa67f"/>
      <path id="Fill_85" data-name="Fill 85" d="M8.676,4.261,9.46,2.9,5.766.395A2.315,2.315,0,0,0,3.441.242l-2.226,1.1A2.152,2.152,0,0,0,0,3.264V5.415L5.436,2.9l3.24,1.364" transform="translate(108.115 240.963)" fill="#efa67f"/>
      <path id="Fill_86" data-name="Fill 86" d="M2.519,12.184,0,11.837,1.056,9.643,19.365.177a1.571,1.571,0,0,1,2.071.578,1.407,1.407,0,0,1-.608,1.961L2.519,12.184" transform="translate(98.655 239.609)" fill="#ac3d68"/>
      <path id="Fill_87" data-name="Fill 87" d="M13.514,10.831l-1.264-3.81L13.514,0l-6,3.294A3.444,3.444,0,0,1,5.6,2.05C5.045,1.133,2.038-.876.116.781-.652,1.83,2.641,3.375,2.753,4.149s-.516,4.429,3.128,5.5l1.483,3.888,6.151-2.706" transform="translate(104.061 243.67)" fill="#efa67f"/>
      <path id="Fill_88" data-name="Fill 88" d="M11.641.091l8.125,21.25L38.423,31.857a6.876,6.876,0,0,1,3.1,8.217,6.736,6.736,0,0,1-9.6,3.776L9.728,31.748,0,6.743S1.753-.917,11.641.091" transform="translate(109.466 253.146)" fill="#5c5c99"/>
      <path id="Fill_89" data-name="Fill 89" d="M0,7.712a73.857,73.857,0,0,0,10.775,5.347,8.081,8.081,0,0,0,8.331-1.784c2.412-2.3,5.909-5.021,9.09-5.2,0,0,1.049-5.906-1.856-6.068s-8.607,8.172-12.41,7.242A8.946,8.946,0,0,1,8.594,3.886,9.41,9.41,0,0,0,0,7.712" transform="translate(105.412 429.13)" fill="#ac3d68"/>
      <path id="Fill_90" data-name="Fill 90" d="M1.959,0,2.7,1.121,2.331,10.83H.878L0,.545,1.959,0" transform="translate(131.089 433.191)" fill="#ac3d68"/>
      <path id="Fill_91" data-name="Fill 91" d="M24.095,17.734c-1.109,9.187-5.125,3.537-4.769,33.355.039,16.115-1.071,29.36,1.288,36.053a19.051,19.051,0,0,1-4.08,2.3,14.467,14.467,0,0,1-7.98,1.083,12.174,12.174,0,0,1-6.347-3.3s1.886-26.945,1.58-38.544C3.938,39.814,0,14.185,0,14.185L12.506,1.8,14.329,0l3.977,1.411,3.736,1.332s3.148,5.8,2.053,14.991" transform="translate(132.441 334.37)" fill="#ac3d68"/>
      <path id="Fill_92" data-name="Fill 92" d="M10.316,31.406a131.183,131.183,0,0,0-4.956,42.7c.215,4.275.689,8.774,2.565,12.108a7.125,7.125,0,0,0,3.9,3.4A9.393,9.393,0,0,1,9.059,90.7,13.167,13.167,0,0,1,2.336,87.39s2-27,1.673-38.62C4.171,39.892,0,14.213,0,14.213L10.247,0,13.1,1.414c.053.13.107.261.148.391a26.019,26.019,0,0,1,1.485,11.938c-.6,6.209-2.715,11.872-4.415,17.663" transform="translate(132.441 333.016)" fill="#752744"/>
      <path id="Fill_93" data-name="Fill 93" d="M30.967,15.61c-1.139,9.187-9.59,5.662-9.22,35.485.052,16.117-1.11,29.366,1.334,36.061a19.327,19.327,0,0,1-9.637,3.524,12.647,12.647,0,0,1-9.438-3.447S5.962,60.282,5.632,48.681C5.79,39.806,0,7.728,0,7.728L16.564,0l4.1,1.409,3.9,1.332a12.587,12.587,0,0,1,6.4,12.869" transform="translate(110.818 337.077)" fill="#ac3d68"/>
      <path id="Fill_94" data-name="Fill 94" d="M6.688,68.233c-.168,4.528-.335,9.147.842,13.52a16.5,16.5,0,0,0,5.628,8.928A12.22,12.22,0,0,1,3.92,87.234S5.835,60.282,5.512,48.681C5.667,39.806,0,7.728,0,7.728L16.212,0l4.01,1.409a9.458,9.458,0,0,1,1.178,6.9c-1.113,4.711-5.616,7.662-8.5,11.524C8.435,25.829,7.983,33.829,7.7,41.319q-.5,13.451-1.01,26.914" transform="translate(110.818 337.077)" fill="#752744"/>
      <path id="Fill_95" data-name="Fill 95" d="M44.6,52.121s-1.122,10.72-19.112,15.191a65.894,65.894,0,0,1-11.66,1.714A5.249,5.249,0,0,1,12.793,69,17.557,17.557,0,0,1,0,60.269S3.509,46.091,2.554,37.136c-.3-2.782-.824-5.458-1.3-7.99-1.1-5.632-2-10.51.192-13.993,0,0,13.916-14.111,33.519-15.153,0,0,8.628-.33,4.113,19.057C37.595,30.294,38.072,44.47,44.6,52.121" transform="translate(109.466 284.282)" fill="#7677ab"/>
      <path id="Fill_96" data-name="Fill 96" d="M27.029,53.125c-.342.225-.671.437-1.025.647a68.421,68.421,0,0,1-11.9,1.716,5.456,5.456,0,0,1-1.054-.027A17.952,17.952,0,0,1,0,46.72s3.58-14.2,2.606-23.163c-.3-2.785-.841-5.466-1.328-8Q4.554,7.771,7.856,0a29.143,29.143,0,0,1,6.4,16.81c.223,5.032-.854,10.009-1.394,15.014S12.37,42.11,14.7,46.575s7.461,7.764,12.33,6.55" transform="translate(109.466 296.465)" fill="#5c5c99"/>
      <path id="Fill_97" data-name="Fill 97" d="M14.2.113s-9.867-.6-9.929.958S7.4,3,7.4,3-.343,5.547.012,6.749c.253.86,3.922.06,5.675-.3C4,6.866.569,8.035.8,9.163c.319,1.589,6.628-.313,6.628-.313s-5.6,1.733-5.166,2.867,6.62-1.092,6.62-1.092S4.113,12.437,4.5,13.33s8.633-1.293,9.474-3.005,1.87-5.516,3.6-5.976L14.2.113" transform="translate(75.681 341.138)" fill="#efa67f"/>
      <path id="Fill_98" data-name="Fill 98" d="M0,41.266,17.61,26.647,21.341,5.61A6.9,6.9,0,0,1,28.164,0,6.821,6.821,0,0,1,35.05,7.815L31,32.712,10.339,50.069S2.4,50.921,0,41.266" transform="translate(87.843 297.819)" fill="#7677ab"/>
      <path id="Fill_99" data-name="Fill 99" d="M12.163,0V7.514C12.163,10.13,0,10.13,0,7.514V0H12.163" transform="translate(125.684 284.282)" fill="#efa67f"/>
      <path id="Fill_100" data-name="Fill 100" d="M12.163,0V1.862A16.646,16.646,0,0,1,1.712,5.415,16.242,16.242,0,0,1,0,5.331V0H12.163" transform="translate(125.684 284.282)" fill="#be7756"/>
      <path id="Fill_101" data-name="Fill 101" d="M29.732,14.891A14.866,14.866,0,1,1,14.866,0,14.879,14.879,0,0,1,29.732,14.891" transform="translate(114.872 257.207)" fill="#efa67f"/>
      <path id="Fill_102" data-name="Fill 102" d="M35.087,17.732c-.013.35-.052.688-.09,1.023C33.533,30.762,25.916,35.249,20.305,35.2c-5.467-.337-5.6-4.084-5.248-6.146a8.325,8.325,0,0,1,.35-1.348c-7.551,0-7.267-6.768-7.267-6.768-.921-.09-1.749-.219-2.474-.364A6.883,6.883,0,0,1,.2,12.235a13.267,13.267,0,0,1,.635-1.957,4.926,4.926,0,0,1,.273-.6A15.682,15.682,0,0,1,6.276,3.315,17.774,17.774,0,0,1,19.788.281c6.737,1.194,11.7,4.785,14.029,9.828a15.391,15.391,0,0,1,1.27,7.623" transform="translate(116.224 251.793)" fill="#603926"/>
      <path id="Fill_103" data-name="Fill 103" d="M33.786,14.692c-.013.357-.052.7-.089,1.043C32.24,27.97,24.667,32.542,19.088,32.489c-5.435-.344-5.564-4.162-5.217-6.263a15.155,15.155,0,0,1,3.3-.529c1.752-.2,3.813-1.03,4.033-2.814.244-2.034-2.1-3.356-4.084-3.566s-4.238-.028-5.707-1.415c-1.095-1.03-1.48-2.735-2.717-3.579a8.567,8.567,0,0,0-2.886-.886A7.994,7.994,0,0,1,0,6.486,15.908,15.908,0,0,1,5.139,0a18.313,18.313,0,0,0,6.491,12.2,17.471,17.471,0,0,0,14.543,3.539,46.93,46.93,0,0,1,5.178-1.188,7.178,7.178,0,0,1,2.434.145" transform="translate(116.224 254.5)" fill="#4e3022"/>
      <path id="Fill_104" data-name="Fill 104" d="M5.406,2.708A2.7,2.7,0,1,1,2.7,0a2.706,2.706,0,0,1,2.7,2.708" transform="translate(147.307 269.391)" fill="#ac3d68"/>
      <path id="Fill_105" data-name="Fill 105" d="M12.034,27.074A19.8,19.8,0,0,1,8.928,25.3c-3.679-2.48-9.282-7.74-8.91-16.44a21.119,21.119,0,0,1,.532-3.1A7.228,7.228,0,0,1,2.82,1.987c3.357-2.968,9.2-2.75,11.8,1.6a10.8,10.8,0,0,1,1.355,3.89c1.42,8.021-3.944,19.6-3.944,19.6" transform="translate(141.901 273.452)" fill="#4e3022"/>
      <path id="Fill_106" data-name="Fill 106" d="M8.312,24.367A20.162,20.162,0,0,1,.016,7.2,24.491,24.491,0,0,1,.511,3.973,7.75,7.75,0,0,1,2.626.034a6.7,6.7,0,0,1,6.7,3.713,12.169,12.169,0,0,1,1.262,4.059c.853,5.384-.9,12.3-2.275,16.562" transform="translate(141.901 276.16)" fill="#603926"/>
      <path id="Fill_107" data-name="Fill 107" d="M4.054,2.031A2.027,2.027,0,1,1,2.027,0,2.029,2.029,0,0,1,4.054,2.031" transform="translate(129.738 276.16)" fill="#efa67f"/>
      <path id="Fill_108" data-name="Fill 108" d="M35.137,1.021,33.38,0,0,19.139V49.065l1.758,1.022,1.864-3.1L33.38,29.926V3.04l.111.048,1.646-2.068" transform="translate(289.208 289.697)" fill="#aac5d1"/>
      <path id="Fill_109" data-name="Fill 109" d="M33.786,0V29.723L0,48.734V19.009L33.786,0" transform="translate(290.559 291.051)" fill="#c8e6f0"/>
      <path id="Fill_110" data-name="Fill 110" d="M33.786,0V29.723L0,48.734V19.009L33.786,0" transform="translate(290.559 291.051)" fill="#c8e6f0"/>
      <path id="Fill_111" data-name="Fill 111" d="M17.569,6.363c0,5.682-3.932,12.591-8.784,15.433S0,22.334,0,16.652,3.933,4.059,8.784,1.217,17.569.68,17.569,6.363" transform="translate(297.316 305.941)" fill="#f9ca2a"/>
      <path id="Fill_112" data-name="Fill 112" d="M2.22,17.6C.288,17.6,0,15.286,0,13.906,0,9.189,3.372,3.213,7.363.858A5.312,5.312,0,0,1,9.942,0c1.933,0,2.221,2.312,2.221,3.694,0,4.714-3.372,10.69-7.364,13.045a5.311,5.311,0,0,1-2.579.86" transform="translate(300.019 308.649)" fill="#ed9831"/>
      <path id="Fill_113" data-name="Fill 113" d="M4.374,1.075a1.582,1.582,0,0,0-.194.133.094.094,0,0,0,0-.021c0-1.06-.739-1.49-1.649-.96A3.706,3.706,0,0,0,1,2.317,3.091,3.091,0,0,0,0,4.432c0,.879.611,1.234,1.365.794l3.009-1.75a2.3,2.3,0,0,0,1.032-1.8c0-.663-.462-.931-1.032-.6" transform="translate(313.534 297.819)" fill="#fffffe"/>
      <path id="Fill_114" data-name="Fill 114" d="M6.562,1.611a2.693,2.693,0,0,0-.292.2.246.246,0,0,0,0-.035C6.272.19,5.165-.455,3.8.341A5.55,5.55,0,0,0,1.507,3.475,4.64,4.64,0,0,0,0,6.648C0,7.965.918,8.5,2.049,7.84L6.562,5.214a3.454,3.454,0,0,0,1.546-2.7c0-.993-.692-1.4-1.546-.9" transform="translate(291.911 314.064)" fill="#fffffe"/>
      <path id="Fill_115" data-name="Fill 115" d="M33.786,0V14.677L0,33.843v-13.7a19.946,19.946,0,0,1,5.945-3.254c4.1-1.4,8.106-1.583,12.257-3.873C22.49,10.647,26.636,6.2,30.827,2.466,31.8,1.6,32.79.764,33.786,0" transform="translate(290.559 305.941)" fill="#55619e"/>
      <path id="Fill_116" data-name="Fill 116" d="M35.137,1.022,33.381,0,0,19.139V49.065l1.758,1.022,1.866-3.1L33.381,29.926V3.04l.111.05,1.645-2.068" transform="translate(291.911 291.051)" fill="#aac5d1"/>
      <path id="Fill_117" data-name="Fill 117" d="M33.786,0V29.724L0,48.734V19.008L33.786,0" transform="translate(293.262 292.404)" fill="#c8e6f0"/>
      <path id="Fill_118" data-name="Fill 118" d="M33.786,0V29.724L0,48.734V19.008L33.786,0" transform="translate(293.262 292.404)" fill="#c8e6f0"/>
      <path id="Fill_119" data-name="Fill 119" d="M17.569,6.362c0,5.682-3.934,12.594-8.785,15.434S0,22.333,0,16.651,3.933,4.057,8.784,1.217,17.569.68,17.569,6.362" transform="translate(302.722 307.295)" fill="#f9ca2a"/>
      <path id="Fill_120" data-name="Fill 120" d="M2.221,17.6C.29,17.6,0,15.286,0,13.906,0,9.189,3.372,3.215,7.363.858A5.311,5.311,0,0,1,9.942,0c1.931,0,2.221,2.314,2.221,3.694,0,4.714-3.372,10.692-7.363,13.047a5.306,5.306,0,0,1-2.579.858" transform="translate(304.073 310.003)" fill="#ed9831"/>
      <path id="Fill_121" data-name="Fill 121" d="M4.374,1.074a1.635,1.635,0,0,0-.193.135V1.186c0-1.06-.739-1.489-1.648-.96A3.7,3.7,0,0,0,1,2.316,3.094,3.094,0,0,0,0,4.433c0,.878.612,1.233,1.367.793l3.007-1.75a2.3,2.3,0,0,0,1.032-1.8c0-.663-.462-.931-1.032-.6" transform="translate(318.939 299.173)" fill="#fffffe"/>
      <path id="Fill_122" data-name="Fill 122" d="M6.56,1.612a2.585,2.585,0,0,0-.29.2c0-.012,0-.022,0-.035C6.272.192,5.165-.455,3.8.341A5.556,5.556,0,0,0,1.505,3.475,4.637,4.637,0,0,0,0,6.648C0,7.966.917,8.5,2.049,7.84L6.56,5.214a3.453,3.453,0,0,0,1.548-2.7c0-.993-.693-1.4-1.548-.9" transform="translate(295.965 315.418)" fill="#fffffe"/>
      <path id="Fill_123" data-name="Fill 123" d="M33.786,0V14.677L0,33.843v-13.7a19.9,19.9,0,0,1,5.945-3.253c4.1-1.4,8.108-1.583,12.257-3.875C22.491,10.645,26.637,6.2,30.83,2.464,31.8,1.6,32.791.764,33.786,0" transform="translate(293.262 307.295)" fill="#55619e"/>
      <path id="Fill_124" data-name="Fill 124" d="M35.137,1.022,33.38,0,0,19.141V49.067l1.758,1.021,1.864-3.1L33.38,29.928V3.042l.111.048,1.646-2.068" transform="translate(295.965 292.404)" fill="#aac5d1"/>
      <path id="Fill_125" data-name="Fill 125" d="M33.786,0V29.724L0,48.734V19.01L33.786,0" transform="translate(297.316 292.404)" fill="#c8e6f0"/>
      <path id="Fill_126" data-name="Fill 126" d="M33.786,0V29.724L0,48.734V19.01L33.786,0" transform="translate(297.316 292.404)" fill="#c8e6f0"/>
      <path id="Fill_127" data-name="Fill 127" d="M17.569,6.362c0,5.683-3.933,12.592-8.784,15.433S0,22.335,0,16.651,3.933,4.058,8.784,1.216s8.784-.537,8.784,5.146" transform="translate(305.425 308.649)" fill="#f9ca2a"/>
      <path id="Fill_128" data-name="Fill 128" d="M2.22,17.6C.288,17.6,0,15.286,0,13.906,0,9.19,3.372,3.214,7.363.856A5.308,5.308,0,0,1,9.942,0c1.933,0,2.221,2.312,2.221,3.692,0,4.716-3.372,10.691-7.364,13.048A5.312,5.312,0,0,1,2.22,17.6" transform="translate(309.479 310.003)" fill="#ed9831"/>
      <path id="Fill_129" data-name="Fill 129" d="M4.374,1.074a1.787,1.787,0,0,0-.194.135c0-.008,0-.015,0-.021C4.181.126,3.443-.3,2.533.228A3.69,3.69,0,0,0,1,2.315,3.1,3.1,0,0,0,0,4.431c0,.878.612,1.236,1.366.8L4.374,3.475a2.3,2.3,0,0,0,1.032-1.8c0-.664-.462-.933-1.032-.6" transform="translate(321.642 300.527)" fill="#fffffe"/>
      <path id="Fill_130" data-name="Fill 130" d="M6.561,1.612a2.376,2.376,0,0,0-.29.2c0-.01,0-.022,0-.033C6.272.19,5.165-.454,3.8.34A5.552,5.552,0,0,0,1.507,3.473,4.658,4.658,0,0,0,0,6.648C0,7.965.918,8.5,2.049,7.84L6.561,5.214a3.451,3.451,0,0,0,1.548-2.7c0-.995-.693-1.4-1.548-.9" transform="translate(300.019 315.418)" fill="#fffffe"/>
      <path id="Fill_131" data-name="Fill 131" d="M33.786,0V14.678L0,33.843V20.14a19.872,19.872,0,0,1,5.945-3.254c4.1-1.4,8.106-1.583,12.255-3.875C22.49,10.648,26.636,6.2,30.827,2.464,31.8,1.6,32.79.766,33.786,0" transform="translate(297.316 308.649)" fill="#55619e"/>
      <path id="Fill_132" data-name="Fill 132" d="M174.335,0,0,100.074V185.46L174.335,85.386V0" transform="translate(194.607 46.027)" fill="#4b65a1"/>
      <path id="Fill_133" data-name="Fill 133" d="M5.2,5.415S1.572,5.377,0,2.676L5.406,0,5.2,5.415" transform="translate(220.284 212.535)" fill="#efa67f"/>
      <path id="Fill_134" data-name="Fill 134" d="M.294,10.83S-1.169,6.4,2.434,4.56c0,0-.789-4.215.675-4.54s3.153,3.242,1.8,8.972L.294,10.83" transform="translate(225.69 204.412)" fill="#efa67f"/>
      <path id="Fill_135" data-name="Fill 135" d="M11.528,14.641l.635-6.093S9.3,1.389,7.4,1.923s0,5.665,0,5.665S5.071,4.381,3.166,4.6V0l-1.2,1.007A3.028,3.028,0,0,0,1,2.533C.487,4.41-.5,8.6.308,10.154c1.059,2.03,5.774,6.091,5.774,6.091l5.446-1.6" transform="translate(191.904 219.303)" fill="#efa67f"/>
      <path id="Fill_136" data-name="Fill 136" d="M9.135.424A20.5,20.5,0,0,0,2.282.676L0,0V2.856C-.2,5.831,10.16,10.031,13.824,11.42a3.328,3.328,0,0,0,2.471-.042,1.634,1.634,0,0,1,2.083.728,1.559,1.559,0,0,0,.919.773c3.964,1.237,6.419.5,7.759-.313a2.739,2.739,0,0,0,1.324-2.352V.424H9.135" transform="translate(241.907 372.274)" fill="#38231a"/>
      <path id="Fill_137" data-name="Fill 137" d="M9.135.426A20.452,20.452,0,0,0,2.282.678L0,0V2.856C-.2,5.831,10.16,10.031,13.824,11.42a3.323,3.323,0,0,0,2.47-.042,1.637,1.637,0,0,1,2.084.728,1.559,1.559,0,0,0,.919.773c3.964,1.237,6.419.5,7.759-.313a2.739,2.739,0,0,0,1.324-2.35V.426H9.135" transform="translate(221.636 381.75)" fill="#38231a"/>
      <path id="Fill_138" data-name="Fill 138" d="M28.38.188v9.966a2.8,2.8,0,0,1-1.324,2.394c-1.341.824-3.8,1.577-7.759.319a1.574,1.574,0,0,1-.919-.788,1.622,1.622,0,0,0-2.083-.741,3.273,3.273,0,0,1-2.471.044C10.16,9.968-.2,5.692,0,2.663.248-1.015,9.135.188,9.135.188H28.38" transform="translate(241.907 369.566)" fill="#613927"/>
      <path id="Fill_139" data-name="Fill 139" d="M28.38.188v9.966a2.8,2.8,0,0,1-1.324,2.394c-1.341.824-3.8,1.577-7.759.319a1.574,1.574,0,0,1-.919-.788,1.622,1.622,0,0,0-2.084-.739,3.276,3.276,0,0,1-2.47.043C10.16,9.968-.2,5.692,0,2.663.248-1.015,9.135.188,9.135.188H28.38" transform="translate(221.636 377.689)" fill="#613927"/>
      <path id="Fill_140" data-name="Fill 140" d="M44.6,0V76.344a3.781,3.781,0,0,1-.61,2.021C43.129,79.749,41.343,81,38.646,81.8a16.541,16.541,0,0,1-9.284,0c-3.967-1.175-5.952-3.315-5.952-5.453V31.9a1.1,1.1,0,0,0-.715-1.018,1.44,1.44,0,0,0-.4-.064A1.1,1.1,0,0,0,21.2,31.9V87.3c0,1.708-1.27,3.417-3.809,4.642a15.056,15.056,0,0,1-2.143.809,16.781,16.781,0,0,1-9.284,0C2,91.577,0,89.439,0,87.3V19.461H23.41V0H44.6" transform="translate(227.042 291.051)" fill="#c5a584"/>
      <path id="Fill_141" data-name="Fill 141" d="M17.569,72.981A15.239,15.239,0,0,1,15.4,73.8a17,17,0,0,1-9.378,0C2.018,72.613,0,70.46,0,68.307V0H6q-.9,26.987-1.79,53.978C4.088,57.5,4,61.121,5.265,64.418c1.883,4.912,7.026,8.247,12.3,8.563" transform="translate(227.042 310.003)" fill="#9b7a5e"/>
      <path id="Fill_142" data-name="Fill 142" d="M12.847,46.2c-3.7-2.135-5.982-6.2-6.931-10.38s-.744-8.5-.522-12.79c.252-5.085.507-11.475.764-16.562A6.164,6.164,0,0,0,0,0V45.333c0,2.135,1.955,4.272,5.863,5.445a16.085,16.085,0,0,0,9.146,0c2.658-.8,4.417-2.045,5.262-3.427A10.5,10.5,0,0,1,12.847,46.2" transform="translate(251.367 322.186)" fill="#9b7a5e"/>
      <path id="Fill_143" data-name="Fill 143" d="M.011,6.318S-.471,2.654,5,.424a11.818,11.818,0,0,1,6.117,0l8.7,17.219a1.655,1.655,0,0,0,.981.829l18.343,5.761a9.653,9.653,0,0,1,6.711,10.559,8.431,8.431,0,0,1-11.822,6.421L14.243,32.323A9.423,9.423,0,0,1,9.5,27.576L.011,6.318" transform="translate(222.987 213.888)" fill="#3b5796"/>
      <path id="Fill_144" data-name="Fill 144" d="M46.936,52.727A11.96,11.96,0,0,1,43.6,58.508c-4.386,4.175-12.461,10-26.176,14.249a7.615,7.615,0,0,1-4.439.027A30.969,30.969,0,0,1,1.92,67a5.686,5.686,0,0,1-1.9-4.715C.665,54.532,2.5,30.934,2.075,20.057a11.827,11.827,0,0,1,4.452-9.731A11.713,11.713,0,0,1,9.153,8.772,1.5,1.5,0,0,1,9.4,8.665c7.13-2.922,28.441-12.68,33.228-6.832,3.675,4.714,1.928,20.173,2.563,26.836.453,4.78,1.242,13.59,2.005,19.45a12.5,12.5,0,0,1-.258,4.609" transform="translate(224.339 242.316)" fill="#4b65a1"/>
      <path id="Fill_145" data-name="Fill 145" d="M47.3,42.061A11.823,11.823,0,0,1,43.936,47.8c-4.42,4.141-12.558,9.916-26.379,14.134a7.791,7.791,0,0,1-4.473.026A31.392,31.392,0,0,1,1.935,56.222,5.6,5.6,0,0,1,.018,51.544c.652-7.693,2.5-31.1,2.074-41.891A11.658,11.658,0,0,1,6.578,0a11.084,11.084,0,0,1,6.7,4.077c2.739,3.616,3,8.477,2.948,13A152.071,152.071,0,0,1,13.839,42.1c-.767,4.285-1.5,9.393,1.63,12.423,3.052,2.952,8.045,2.194,12.036.719A51.75,51.75,0,0,0,47.3,42.061" transform="translate(224.339 254.5)" fill="#3b5796"/>
      <path id="Fill_146" data-name="Fill 146" d="M13.514,0V4.415C13.514,7.553,0,7.553,0,4.415V0H13.514" transform="translate(241.907 247.731)" fill="#efa67f"/>
      <path id="Fill_147" data-name="Fill 147" d="M13.514,0V.226A14.693,14.693,0,0,1,3.477,4.061,15.181,15.181,0,0,1,0,3.666V0H13.514" transform="translate(241.907 247.731)" fill="#be7756"/>
      <path id="Fill_148" data-name="Fill 148" d="M.011,6.318S-.473,2.655,5,.425a11.8,11.8,0,0,1,6.117,0l8.7,17.219a1.65,1.65,0,0,0,.981.829l18.343,5.76a9.655,9.655,0,0,1,6.711,10.562,8.431,8.431,0,0,1-11.822,6.419l-19.786-8.89A9.411,9.411,0,0,1,9.5,27.577L.011,6.318" transform="translate(193.256 232.84)" fill="#4b65a1"/>
      <path id="Fill_149" data-name="Fill 149" d="M29.732,14.893A14.866,14.866,0,1,1,14.867,0,14.878,14.878,0,0,1,29.732,14.893" transform="translate(232.447 220.657)" fill="#efa67f"/>
      <path id="Fill_150" data-name="Fill 150" d="M29.971,30.706a12.917,12.917,0,0,1-13.4,8.528s-8.041-2.412-4.6-10.785c0,0-4.427.483-4.027-7.253,0,0-8.866-3.051-7.868-12.156C.728,4.527,4.623.079,9.474,0a8.059,8.059,0,0,1,1.848.181c4.014.965,6.233,5.713,5.822,9.418a15.074,15.074,0,0,1,9.928,4.865,15.667,15.667,0,0,1,2.9,16.24" transform="translate(236.502 211.181)" fill="#613927"/>
      <path id="Fill_151" data-name="Fill 151" d="M29.732,30.705A12.814,12.814,0,0,1,16.44,39.234s-7.977-2.412-4.562-10.786c0,0-4.392.483-4-7.254,0,0-8.795-3.051-7.806-12.156C.722,4.526,4.586.077,9.4,0A11.356,11.356,0,0,0,5.655,4.292,11.215,11.215,0,0,0,5.6,13.97C7.725,12.939,9.86,11.9,12,10.865a6,6,0,0,0-.673,9.012c1.437,1.489,3.652,2.27,4.6,4.1.751,1.435.528,3.194,1.043,4.735,1.107,3.379,5.511,4.748,8.966,3.8a13.072,13.072,0,0,0,3.8-1.8" transform="translate(236.502 211.181)" fill="#4e3022"/>
      <path id="Fill_152" data-name="Fill 152" d="M4.054,2.031A2.027,2.027,0,1,1,2.028,0,2.029,2.029,0,0,1,4.054,2.031" transform="translate(245.962 236.902)" fill="#efa67f"/>
      <path id="Fill_153" data-name="Fill 153" d="M5.2,5.415S1.572,5.375,0,2.677L5.406,0,5.2,5.415" transform="translate(358.131 134.019)" fill="#efa67f"/>
      <path id="Fill_154" data-name="Fill 154" d="M.295,10.83S-1.17,6.4,2.433,4.56c0,0-.788-4.215.677-4.54s3.153,3.242,1.8,8.972L.295,10.83" transform="translate(363.537 127.25)" fill="#efa67f"/>
      <path id="Fill_155" data-name="Fill 155" d="M12.163,6.909l-.67,6.315L5.678,14.891A46.593,46.593,0,0,1,0,9.292l6.733-3.81c.165.189.289.337.329.389-.014-.066-.081-.241-.151-.5C6.445,4,5.458.475,7.09.03c1.029-.282,2.331,1.508,3.36,3.339a34.8,34.8,0,0,1,1.713,3.54" transform="translate(327.048 144.848)" fill="#efa67f"/>
      <path id="Fill_156" data-name="Fill 156" d="M9.133.426A20.481,20.481,0,0,0,2.281.676L0,0V2.855c-.2,2.977,10.156,7.176,13.82,8.566a3.328,3.328,0,0,0,2.472-.042,1.638,1.638,0,0,1,2.085.726,1.563,1.563,0,0,0,.917.774c3.966,1.235,6.419.5,7.761-.313a2.74,2.74,0,0,0,1.322-2.352V.426H9.133" transform="translate(379.754 292.404)" fill="#38231a"/>
      <path id="Fill_157" data-name="Fill 157" d="M9.133.426A20.482,20.482,0,0,0,2.281.676L0,0V2.855c-.2,2.977,10.158,7.176,13.82,8.566a3.328,3.328,0,0,0,2.472-.042,1.636,1.636,0,0,1,2.085.728,1.564,1.564,0,0,0,.919.773c3.964,1.237,6.417.5,7.76-.313a2.738,2.738,0,0,0,1.322-2.352V.426H9.133" transform="translate(358.131 301.88)" fill="#38231a"/>
      <path id="Fill_158" data-name="Fill 158" d="M28.38.188v9.967a2.8,2.8,0,0,1-1.322,2.394c-1.342.824-3.8,1.576-7.761.319a1.576,1.576,0,0,1-.917-.788,1.621,1.621,0,0,0-2.085-.739,3.281,3.281,0,0,1-2.472.043C10.159,9.968-.2,5.691,0,2.664.246-1.014,9.133.188,9.133.188H28.38" transform="translate(379.754 291.051)" fill="#613927"/>
      <path id="Fill_159" data-name="Fill 159" d="M28.38.188v9.966a2.8,2.8,0,0,1-1.322,2.394c-1.342.824-3.8,1.577-7.76.319a1.575,1.575,0,0,1-.919-.788,1.624,1.624,0,0,0-2.085-.739,3.281,3.281,0,0,1-2.472.043C10.161,9.968-.2,5.69,0,2.663.246-1.015,9.133.188,9.133.188H28.38" transform="translate(358.131 299.173)" fill="#613927"/>
      <path id="Fill_160" data-name="Fill 160" d="M44.6,0V76.342a3.779,3.779,0,0,1-.608,2.023c-.86,1.382-2.644,2.634-5.344,3.43a16.514,16.514,0,0,1-9.285,0c-3.967-1.173-5.95-3.313-5.95-5.453V31.905a1.094,1.094,0,0,0-.715-1.018,1.443,1.443,0,0,0-.4-.066,1.1,1.1,0,0,0-1.1,1.084V87.3c0,1.708-1.27,3.417-3.809,4.642a14.787,14.787,0,0,1-2.143.809,16.783,16.783,0,0,1-9.285,0C2,91.577,0,89.438,0,87.3V19.462H23.41V0H44.6" transform="translate(364.888 211.181)" fill="#4b65a1"/>
      <path id="Fill_161" data-name="Fill 161" d="M17.569,72.981A14.967,14.967,0,0,1,15.4,73.8a17.007,17.007,0,0,1-9.379,0C2.017,72.613,0,70.458,0,68.307V0H6q-.9,26.987-1.79,53.976c-.122,3.52-.214,7.144,1.055,10.442,1.883,4.912,7.028,8.246,12.305,8.563" transform="translate(364.888 231.487)" fill="#3b5796"/>
      <path id="Fill_162" data-name="Fill 162" d="M12.845,46.2c-3.7-2.135-5.98-6.2-6.931-10.38s-.742-8.5-.52-12.792c.25-5.085.507-11.474.762-16.561A6.161,6.161,0,0,0,0,0V45.331c0,2.137,1.953,4.274,5.861,5.445a16.056,16.056,0,0,0,9.146,0c2.659-.795,4.417-2.045,5.264-3.425A10.5,10.5,0,0,1,12.845,46.2" transform="translate(387.863 242.316)" fill="#3b5796"/>
      <path id="Fill_163" data-name="Fill 163" d="M.011,6.318S-.471,2.655,5,.425a11.793,11.793,0,0,1,6.115,0l8.7,17.219a1.647,1.647,0,0,0,.979.829l18.342,5.76a9.651,9.651,0,0,1,6.711,10.56,8.431,8.431,0,0,1-11.822,6.421l-19.784-8.89A9.426,9.426,0,0,1,9.5,27.577L.011,6.318" transform="translate(359.482 134.019)" fill="#9b7a5e"/>
      <path id="Fill_164" data-name="Fill 164" d="M46.936,52.727A11.947,11.947,0,0,1,43.6,58.509c-4.386,4.175-12.46,10-26.176,14.247a7.6,7.6,0,0,1-4.437.028A30.91,30.91,0,0,1,1.921,67a5.688,5.688,0,0,1-1.9-4.713C.665,54.532,2.5,30.935,2.075,20.057a11.831,11.831,0,0,1,4.452-9.731A11.651,11.651,0,0,1,9.153,8.772a1.272,1.272,0,0,1,.247-.1C16.529,5.744,37.841-4.014,42.628,1.832,46.3,6.547,44.554,22.007,45.19,28.669c.451,4.778,1.24,13.588,2.005,19.449a12.533,12.533,0,0,1-.26,4.609" transform="translate(362.185 165.154)" fill="#c5a584"/>
      <path id="Fill_165" data-name="Fill 165" d="M47.3,42.061A11.81,11.81,0,0,1,43.936,47.8c-4.42,4.141-12.556,9.916-26.379,14.133a7.772,7.772,0,0,1-4.472.028A31.332,31.332,0,0,1,1.936,56.22,5.6,5.6,0,0,1,.018,51.544c.652-7.693,2.5-31.1,2.074-41.891A11.662,11.662,0,0,1,6.578,0a11.093,11.093,0,0,1,6.7,4.075c2.737,3.618,3,8.479,2.946,13A151.89,151.89,0,0,1,13.841,42.1c-.769,4.283-1.5,9.391,1.63,12.422,3.05,2.953,8.045,2.194,12.034.719A51.715,51.715,0,0,0,47.3,42.061" transform="translate(362.185 174.63)" fill="#9b7a5e"/>
      <path id="Fill_166" data-name="Fill 166" d="M13.514,0V4.415C13.514,7.553,0,7.553,0,4.415V0H13.514" transform="translate(378.403 169.215)" fill="#efa67f"/>
      <path id="Fill_167" data-name="Fill 167" d="M13.514,0V.226A14.7,14.7,0,0,1,3.475,4.061,15.257,15.257,0,0,1,0,3.666V0H13.514" transform="translate(378.403 169.215)" fill="#be7756"/>
      <path id="Fill_168" data-name="Fill 168" d="M.011,6.318S-.471,2.655,5,.425a11.793,11.793,0,0,1,6.115,0l8.7,17.219a1.647,1.647,0,0,0,.979.829l18.342,5.76a9.656,9.656,0,0,1,6.713,10.562,8.432,8.432,0,0,1-11.824,6.419l-19.784-8.89A9.42,9.42,0,0,1,9.5,27.577L.011,6.318" transform="translate(329.751 154.324)" fill="#c5a584"/>
      <path id="Fill_169" data-name="Fill 169" d="M29.732,14.891A14.866,14.866,0,1,1,14.866,0,14.879,14.879,0,0,1,29.732,14.891" transform="translate(368.943 142.141)" fill="#efa67f"/>
      <path id="Fill_170" data-name="Fill 170" d="M29.971,30.7a12.913,12.913,0,0,1-13.4,8.53s-8.041-2.413-4.6-10.787c0,0-4.427.483-4.027-7.252,0,0-8.866-3.051-7.868-12.156C.73,4.527,4.624.079,9.476,0a8.054,8.054,0,0,1,1.847.181c4.014.965,6.233,5.713,5.822,9.418a15.071,15.071,0,0,1,9.928,4.865,15.663,15.663,0,0,1,2.9,16.238" transform="translate(372.997 132.665)" fill="#613927"/>
      <path id="Fill_171" data-name="Fill 171" d="M29.732,30.7a12.81,12.81,0,0,1-13.292,8.53S8.463,36.82,11.879,28.446c0,0-4.392.483-4-7.252,0,0-8.795-3.051-7.806-12.156C.724,4.526,4.587.077,9.4,0A11.355,11.355,0,0,0,5.655,4.29,11.215,11.215,0,0,0,5.6,13.969c2.122-1.03,4.258-2.074,6.393-3.1a6.008,6.008,0,0,0-.671,9.013c1.436,1.486,3.652,2.269,4.6,4.1.751,1.433.528,3.194,1.041,4.735,1.107,3.377,5.512,4.748,8.966,3.8a13.014,13.014,0,0,0,3.8-1.8" transform="translate(372.997 132.665)" fill="#4e3022"/>
      <path id="Fill_172" data-name="Fill 172" d="M4.054,2.031A2.027,2.027,0,1,1,2.027,0,2.029,2.029,0,0,1,4.054,2.031" transform="translate(381.105 158.386)" fill="#efa67f"/>
      <path id="Fill_173" data-name="Fill 173" d="M.642.023A1.166,1.166,0,0,1,1.811.576a5.891,5.891,0,0,0,.615,1.059c.47.482,1.4.691,1.6,1.28.147.447-.269.928-.82,1.08a2.367,2.367,0,0,1-1.672-.233A3.03,3.03,0,0,1,0,1.115.97.97,0,0,1,.642.023" transform="translate(83.789 345.199)" fill="#be7756"/>
      <path id="Fill_174" data-name="Fill 174" d="M28.375,9.986C24.861,6.283,15.722.935,15.722.935L0,0V10.283a4.019,4.019,0,0,0,4.787,1.262L4.737,9.036l.84,1.3a6.386,6.386,0,0,0,2.108,2.03c10.629,6.273,21.515,3.9,22.022.164l.025,0V10.3l-1.357-.314" transform="translate(14.866 480.572)" fill="#21221f"/>
      <path id="Fill_175" data-name="Fill 175" d="M28.375,9.985C24.861,6.282,15.723.933,15.723.933L0,0V10.282a4.024,4.024,0,0,0,4.788,1.264L4.737,9.035l.841,1.3a6.37,6.37,0,0,0,2.108,2.03c10.627,6.275,21.514,3.9,22.021.164l.025,0V10.3l-1.357-.314" transform="translate(37.84 468.388)" fill="#21221f"/>
      <path id="Fill_176" data-name="Fill 176" d="M15.722.933s14.008,8.2,14.01,11.321c0,3.892-11.161,6.536-22.047.11a6.386,6.386,0,0,1-2.108-2.03l-.841-1.3a2.118,2.118,0,0,1-2.654,1.831l-.524-.149A2.166,2.166,0,0,1,0,8.618V0L15.722.933" transform="translate(14.866 477.864)" fill="#cfe7ec"/>
      <path id="Fill_177" data-name="Fill 177" d="M15.723.933s14.007,8.2,14.009,11.321c0,3.892-11.16,6.536-22.046.11a6.37,6.37,0,0,1-2.108-2.03l-.841-1.3a2.12,2.12,0,0,1-2.654,1.831l-.525-.147A2.173,2.173,0,0,1,0,8.618V0L15.723.933" transform="translate(37.84 465.681)" fill="#cfe7ec"/>
      <path id="Fill_178" data-name="Fill 178" d="M44.6,0V73.617a.714.714,0,0,1-.013.168c-.092,2.088-2.076,4.137-5.938,5.286a16.5,16.5,0,0,1-9.284,0c-3.969-1.162-5.965-3.315-5.965-5.454V29.154a1.076,1.076,0,0,0-.952-1.07.543.543,0,0,0-.145-.013,1.088,1.088,0,0,0-1.1,1.083V84.578c0,2.141-1.984,4.281-5.965,5.456a16.486,16.486,0,0,1-9.271,0C2,88.859,0,86.72,0,84.578V4.839L44.6,0" transform="translate(13.514 392.58)" fill="#ac3d68"/>
      <path id="Fill_179" data-name="Fill 179" d="M21.623,77.429v1.694c0,2.155-2.024,4.309-6.084,5.492a17.027,17.027,0,0,1-9.455,0C2.038,83.432,0,81.278,0,79.123V.249A5.314,5.314,0,0,1,1.646,0C4.29.013,6.556,2.1,7.554,4.493s1,5.044.985,7.631q-.143,28.4-.31,56.793c-.014,3.244.189,6.975,2.792,9a7.682,7.682,0,0,0,6.164,1.157,17.806,17.806,0,0,0,4.438-1.643" transform="translate(13.514 397.995)" fill="#752744"/>
      <path id="Fill_180" data-name="Fill 180" d="M17.4,47.718a7.756,7.756,0,0,1-6.6-2.886,15.859,15.859,0,0,1-2.671-6.546A165.875,165.875,0,0,1,4.4,4.493,4.467,4.467,0,0,0,0,0V46.643c0,2.151,1.91,4.314,5.707,5.482a15.061,15.061,0,0,0,8.883,0c3.7-1.155,5.594-3.214,5.682-5.313a7.228,7.228,0,0,1-2.874.906" transform="translate(36.489 419.654)" fill="#752744"/>
      <path id="Fill_181" data-name="Fill 181" d="M9.777,31.136S16.17,22.254,24.326,21.8c0,0-6.247-22.493-17.67-21.781a6.9,6.9,0,0,0-6.18,5.13c-2.7,9.675,6.9,23.444,9.3,25.989" transform="translate(43.246 335.723)" fill="#eea13d"/>
      <path id="Fill_182" data-name="Fill 182" d="M11.869,0l2.87.758,8.236,12.867L17.421,25.7C13.879,26.266,6.036,16.753.652,10.234L0,5.163S4.319-.025,4.994,0s6.874,0,6.874,0" transform="translate(51.355 356.029)" fill="#be7756"/>
      <path id="Fill_183" data-name="Fill 183" d="M.05,25.8S-1.044,14.813,7.019,9.059,20.026,0,20.026,0l4.3,3.943S11.464,33.481.05,25.8" transform="translate(66.22 354.676)" fill="#be7756"/>
      <path id="Fill_184" data-name="Fill 184" d="M2.482.1C1.166.4-.107,1.515.007,2.86.125,4.244,1.6,5.113,2.962,5.341a3.5,3.5,0,0,0,3.27-.867,2.68,2.68,0,0,0-.242-3.457A3.764,3.764,0,0,0,2.482.1" transform="translate(81.086 354.676)" fill="#a36348"/>
      <path id="Fill_185" data-name="Fill 185" d="M50,57.68S40.974,71.328,17.051,73.1c0,0-10.982-.156-17.051-9.9,0,0,3.144-33.118,2.265-48.2-.013-.146-.013-.277-.026-.408,0,0,30.494-18.774,40.094-13.739s3.842,24.837,4.8,34.262c.737,7.285,2.056,16.8,2.613,20.733C49.9,57.01,50,57.68,50,57.68" transform="translate(8.109 335.723)" fill="#f9ce3d"/>
      <path id="Fill_186" data-name="Fill 186" d="M50,42.928S40.974,56.453,17.051,58.21c0,0-10.982-.155-17.051-9.809C0,48.4,3.144,15.583,2.265.639,2.278.625,2.291.625,2.3.611,4.724-.586,7.7.118,10.013,1.5c4.956,2.946,7.829,8.639,8.592,14.384s-.324,11.557-1.734,17.171c-.842,3.309-1.812,6.658-1.734,10.084s1.423,7.023,4.257,8.9c4.01,2.644,9.353,1.094,13.7-.912a81.436,81.436,0,0,0,14.038-8.274,18.9,18.9,0,0,1,2.613-1.733c.155,1.147.258,1.81.258,1.81" transform="translate(8.109 350.614)" fill="#eea13d"/>
      <path id="Fill_187" data-name="Fill 187" d="M29.732,23.419c-7.848,9.45-15.159,5.642-15.583,5.414a.043.043,0,0,1-.019-.012C8.85,23.426,0,12.474,0,12.474L.349,6.856,5.464,0l9.188,3.083,15.08,20.337" transform="translate(14.866 368.213)" fill="#efa67f"/>
      <path id="Fill_188" data-name="Fill 188" d="M28.259,3.991l.412-.733L26.83,2.092C24.122-.567,19.772-.8,14.866,2.022,6.655,6.742,0,18.225,0,27.668,0,32,1.4,35.147,3.713,36.831a7.111,7.111,0,0,0,1.972,1.011l2.766,1.415L9.045,38.2a14.244,14.244,0,0,0,5.821-1.986c8.21-4.722,14.866-16.2,14.866-25.646a13.537,13.537,0,0,0-1.473-6.579" transform="translate(52.706 338.431)" fill="#56629e"/>
      <path id="Fill_189" data-name="Fill 189" d="M29.732,10.479c0,9.36-6.655,20.74-14.866,25.42S0,36.786,0,27.426,6.657,6.686,14.866,2.006s14.866-.888,14.866,8.473" transform="translate(55.409 339.785)" fill="#263779"/>
      <path id="Fill_190" data-name="Fill 190" d="M24.326,8.608c0,7.687-5.446,17.036-12.164,20.881S0,30.217,0,22.528,5.445,5.491,12.162,1.647,24.326.919,24.326,8.608" transform="translate(58.112 343.846)" fill="#ebf6f9"/>
      <path id="Fill_191" data-name="Fill 191" d="M8.44,12.243,1.021,16.118C.458,16.413,0,16.174,0,15.586a2.016,2.016,0,0,1,1.021-1.6l6.4-3.343V1.727A2.007,2.007,0,0,1,8.44.127C9-.169,9.46.071,9.46.659v9.984a2.013,2.013,0,0,1-1.02,1.6" transform="translate(62.166 349.261)" fill="#263779"/>
      <path id="Fill_192" data-name="Fill 192" d="M2.7,1.121A3.622,3.622,0,0,1,1.352,3.846C.6,4.348,0,3.941,0,2.938A3.613,3.613,0,0,1,1.352.215C2.1-.287,2.7.119,2.7,1.121" transform="translate(68.923 358.737)" fill="#56629e"/>
      <path id="Fill_193" data-name="Fill 193" d="M33.768,6.524c-.208-.745-2.723.2-4.011.74l-.013-.219c1.305-.533,3.871-1.709,3.615-2.623-.193-.69-2.38.076-3.727.621L29.62,4.83v0c1.359-.574,3.565-1.653,3.327-2.5-.18-.645-2.1-.02-3.445.509V2.754c1.362-.577,3.512-1.643,3.277-2.479C32.6-.362,30.734.237,29.385.761,29.085.878,24.338,3,24.338,3S21.57,2.273,21.492,5.92c0,0-7.895,4.011-13.047,9.456a18.917,18.917,0,0,0-3.32,4.576L0,30.181a.042.042,0,0,0,.018.012C.436,30.42,7.651,34.2,15.4,24.813a36.45,36.45,0,0,0,3.732-5.589c3.172-4.943,5.125-7.95,6.349-8.682a26.388,26.388,0,0,1,4.391-1.286c1.166-.455,4.18-1.747,3.9-2.733" transform="translate(28.38 366.859)" fill="#efa67f"/>
      <path id="Fill_194" data-name="Fill 194" d="M4.054,6.163,3.093,4.407S3.021.03,2.113,0C.144-.064-.654,6.048.608,8.122L3.019,7.97,4.054,6.163" transform="translate(48.652 365.505)" fill="#efa67f"/>
      <path id="Fill_195" data-name="Fill 195" d="M12.163,0V8.468c0,3.149-12.163,3.149-12.163,0V0H12.163" transform="translate(29.732 338.431)" fill="#efa67f"/>
      <path id="Fill_196" data-name="Fill 196" d="M12.163,0V6.72c-.4.036-.793.048-1.188.048A15.334,15.334,0,0,1,0,2.3V0H12.163" transform="translate(29.732 338.431)" fill="#be7756"/>
      <path id="Fill_197" data-name="Fill 197" d="M29.732,14.89A14.866,14.866,0,1,1,14.867,0,14.878,14.878,0,0,1,29.732,14.89" transform="translate(22.974 314.064)" fill="#efa67f"/>
      <path id="Fill_198" data-name="Fill 198" d="M37.84,11.717a19.862,19.862,0,0,1-4.034,2.625,20.1,20.1,0,0,1-8.929,2.081,20.4,20.4,0,0,1-7.195-1.32A11.791,11.791,0,0,1,7.79,20.486a12.23,12.23,0,0,1-2.222-.212,1.062,1.062,0,0,0-.013.212,14.912,14.912,0,0,0,6.493,12.33v1.027C4.971,31.217,0,24.926,0,17.581v-.039A16.876,16.876,0,0,1,6.426,4.532,20.171,20.171,0,0,1,16.281.241,19.442,19.442,0,0,1,19.481,0C27.959,0,35.167,4.892,37.84,11.717" transform="translate(16.217 308.649)" fill="#603926"/>
      <path id="Fill_199" data-name="Fill 199" d="M4.054,2.031A2.027,2.027,0,1,1,2.028,0,2.028,2.028,0,0,1,4.054,2.031" transform="translate(21.623 327.601)" fill="#efa67f"/>
      <path id="Fill_200" data-name="Fill 200" d="M9.778,31.136s6.393-8.883,14.548-9.338c0,0-6.246-22.494-17.67-21.781a6.9,6.9,0,0,0-6.18,5.13c-2.7,9.675,6.9,23.443,9.3,25.99" transform="translate(5.406 350.614)" fill="#f9ce3d"/>
      <path id="Fill_201" data-name="Fill 201" d="M5.336,5.99A15.606,15.606,0,0,0,3.482,0l-.56,3.822L1.556,2.239c-3.69,6.424.34,9.945.34,9.945l.047-.119A2.643,2.643,0,0,0,4.793,10.37a8.243,8.243,0,0,0,.544-4.38" transform="translate(83.789 347.907)" fill="#be7756"/>
      <path id="Fill_202" data-name="Fill 202" d="M9.4.438C9.184.037,8.524-.09,7.438.063,5.124.391.969,2,.16,3.076a.587.587,0,0,0-.135.554c.144.407.786.524,1.958.358C4.3,3.662,8.6,2.183,9.338,1.049A.576.576,0,0,0,9.4.438" transform="translate(82.438 353.322)" fill="#be7756"/>
      <path id="Fill_203" data-name="Fill 203" d="M9.423.608C9.258.134,8.634-.065,7.568.019,5.278.2,1.078,1.7.193,2.854a.755.755,0,0,0-.182.611c.1.478.7.664,1.855.575C4.154,3.859,8.485,2.53,9.3,1.295A.755.755,0,0,0,9.423.608" transform="translate(81.086 351.968)" fill="#be7756"/>
      <path id="Fill_204" data-name="Fill 204" d="M9.432.726C9.288.207,8.678-.035,7.618,0,5.374.091,1.172,1.5.227,2.693a.858.858,0,0,0-.22.663c.076.515.669.745,1.815.7,2.245-.085,6.567-1.3,7.452-2.585A.866.866,0,0,0,9.432.726" transform="translate(81.086 350.614)" fill="#be7756"/>
      <path id="Fill_205" data-name="Fill 205" d="M9.455.843C9.39.4,8.831.128,7.8.035,5.663-.156,1.514.461.347,1.329A.706.706,0,0,0,0,1.872c0,.426.559.694,1.664.792,2.163.194,6.383-.269,7.5-1.2A.673.673,0,0,0,9.455.843" transform="translate(81.086 349.261)" fill="#be7756"/>
    </g>
  </g>
</svg>
