<svg xmlns="http://www.w3.org/2000/svg" width="436.903" height="249.915" viewBox="0 0 436.903 249.915">
  <g id="deco-bg" transform="translate(-0.549 -0.043)">
    <path id="Combined_Shape" data-name="Combined Shape" d="M236.07,140.276H97.7a14.027,14.027,0,0,1,0-28.055h26.8a14.028,14.028,0,0,0,0-28.056H14.027a14.027,14.027,0,1,1,0-28.055H96.611a14.028,14.028,0,0,0,0-28.056H14.027A14.027,14.027,0,0,1,4.109,4.108,13.936,13.936,0,0,1,14.027,0H319.746a14.027,14.027,0,0,1,9.919,23.946,13.936,13.936,0,0,1-9.919,4.108H237.163a14.028,14.028,0,0,0,0,28.056h82.583a14.027,14.027,0,1,1,0,28.055H209.271a14.028,14.028,0,0,0,0,28.056h26.8a14.027,14.027,0,1,1,0,28.055Z" transform="translate(87.404 46.495) rotate(-8)" fill="#f3f6fb"/>
    <path id="Combined_Shape_Copy" data-name="Combined Shape Copy" d="M236.07,140.276H97.7a14.027,14.027,0,0,1,0-28.055h26.8a14.028,14.028,0,0,0,0-28.056H14.027a14.027,14.027,0,1,1,0-28.055H96.611a14.028,14.028,0,0,0,0-28.056H14.027A14.027,14.027,0,0,1,4.109,4.108,13.936,13.936,0,0,1,14.027,0H319.746a14.027,14.027,0,0,1,9.919,23.946,13.936,13.936,0,0,1-9.919,4.108H237.163a14.028,14.028,0,0,0,0,28.056h82.583a14.027,14.027,0,1,1,0,28.055H209.271a14.028,14.028,0,0,0,0,28.056h26.8a14.027,14.027,0,1,1,0,28.055Z" transform="translate(350.596 203.505) rotate(172)" fill="#f3f6fb"/>
  </g>
</svg>
