<svg xmlns="http://www.w3.org/2000/svg" xmlns:xlink="http://www.w3.org/1999/xlink" width="717" height="550" viewBox="0 0 717 550">
  <defs>
    <linearGradient id="linear-gradient" x1="0.5" x2="0.5" y2="1" gradientUnits="objectBoundingBox">
      <stop offset="0" stop-color="#ec610a"/>
      <stop offset="1" stop-color="#d0021b"/>
    </linearGradient>
    <linearGradient id="linear-gradient-2" x1="0.5" x2="0.5" y2="1" gradientUnits="objectBoundingBox">
      <stop offset="0" stop-color="#ffec00"/>
      <stop offset="1" stop-color="#f5a623"/>
    </linearGradient>
    <clipPath id="clip-path">
      <path id="Oval" d="M341.309,514.553c7.428,1.373,20.678,3.883,32.312,4.888,5.658.489,11.034,1.3,14.291,1.854,6.958,1.194,17.8.631,24.595,1.054,3.683.229,7.287.37,10.865.483,187.994,5.973,231.726-148.8,284-267.679C765.1,123.871,552.3,0,361,0S-60.657,114.236,14.631,255.153c49.819,93.246,93.027,149.1,177.638,194.216C220.92,464.645,244.7,485.741,279,499.9,296.482,507.125,323.119,511.19,341.309,514.553Z" fill="none"/>
    </clipPath>
  </defs>
  <g id="odullerimiz" transform="translate(0)">
    <path id="Oval-2" data-name="Oval" d="M309.645,369.641c208.342,32.525,247.58-89.726,297.1-184.82S473.727,0,309.645,0-52.028,82.747,12.549,184.82c42.731,67.543,79.793,108,152.368,140.681C202.02,342.206,263.436,362.427,309.645,369.641Z" transform="translate(44 175)" fill="url(#linear-gradient)"/>
    <path id="Oval-3" data-name="Oval" d="M309.645,369.641c208.342,32.525,247.58-89.726,297.1-184.82S473.727,0,309.645,0-52.028,82.747,12.549,184.82c42.731,67.543,79.793,108,152.368,140.681C202.02,342.206,263.436,362.427,309.645,369.641Z" transform="translate(44 147)" fill="url(#linear-gradient-2)"/>
    <path id="Oval-4" data-name="Oval" d="M341.309,514.553c7.428,1.373,20.678,3.883,32.312,4.888,5.658.489,11.034,1.3,14.291,1.854,6.958,1.194,17.8.631,24.595,1.054,3.683.229,7.287.37,10.865.483,187.994,5.973,231.726-148.8,284-267.679C765.1,123.871,552.3,0,361,0S-60.657,114.236,14.631,255.153c49.819,93.246,93.027,149.1,177.638,194.216C220.92,464.645,244.7,485.741,279,499.9,296.482,507.125,323.119,511.19,341.309,514.553Z" fill="none"/>
    <g id="odullerimiz-2" data-name="odullerimiz" clip-path="url(#clip-path)">
      <g id="kupa" transform="translate(141 109)">
        <g id="Group" transform="translate(322.982 26.45)">
          <path id="Combined_Shape" data-name="Combined Shape" d="M27.544,167.641H0L19.9,0H97.723A14.378,14.378,0,0,1,107.91,4.181a14.118,14.118,0,0,1,4.219,10.094V83.821a82.646,82.646,0,0,1-6.647,32.627,83.592,83.592,0,0,1-7.8,14.238,84.593,84.593,0,0,1-10.329,12.405,84.709,84.709,0,0,1-59.811,24.55ZM20.153,26.119l-7.171,115.34,20.357-5.652A68.329,68.329,0,0,0,83.407,74.433L85.961,33.7c.01-.142.014-.291.014-.443a7.179,7.179,0,0,0-7.2-7.138Z" transform="translate(0.542 0.269)" fill="#ffc300"/>
        </g>
        <g id="Group_Copy" data-name="Group Copy" transform="translate(113.018 26.45) rotate(180)">
          <path id="Combined_Shape-2" data-name="Combined Shape" d="M-27.544,167.641H0L-19.9,0H-97.723A14.378,14.378,0,0,0-107.91,4.181a14.118,14.118,0,0,0-4.219,10.094V83.821a82.646,82.646,0,0,0,6.647,32.627,83.592,83.592,0,0,0,7.8,14.238,84.593,84.593,0,0,0,10.329,12.405,85.031,85.031,0,0,0,12.518,10.235,84.841,84.841,0,0,0,14.368,7.728A84.72,84.72,0,0,0-27.544,167.641Zm7.391-141.522,7.171,115.34-20.357-5.652A68.329,68.329,0,0,1-83.407,74.433L-85.961,33.7c-.01-.142-.014-.291-.014-.443a7.179,7.179,0,0,1,7.2-7.138Z" transform="translate(0.542 -0.269) rotate(-180)" fill="#ffc300"/>
        </g>
        <rect id="Rectangle_2" data-name="Rectangle 2" width="277.505" height="11.756" rx="1.95" transform="translate(79.248 411.447)" fill="#ffc300"/>
        <path id="Combined_Shape-3" data-name="Combined Shape" d="M125.538,318.869l-.4,0v-.006l-18.411-.146c5.127-49.611-31.589-55.924-67.7-97.685C0,175.892,0,124.339,0,124.339V2.6A2.6,2.6,0,0,1,2.6,0H248.476a2.6,2.6,0,0,1,2.6,2.6V124.339s0,51.554-39.029,96.7c-36.106,41.761-72.823,48.074-67.7,97.685l-18.411.146v.006Z" transform="translate(90.994)" fill="#ffc300"/>
        <rect id="Rectangle_2_Copy" data-name="Rectangle 2 Copy" width="67.541" height="11.756" rx="1.95" transform="translate(33.731 445.244)" fill="#ffc300"/>
        <rect id="Rectangle" width="179.13" height="96.984" transform="translate(129.169 317.402)" fill="#ec610a"/>
        <rect id="Rectangle_Copy" data-name="Rectangle Copy" width="120.399" height="52.9" transform="translate(158.535 339.444)" fill="#ffc300"/>
        <rect id="Rectangle_2_Copy_2" data-name="Rectangle 2 Copy 2" width="52.858" height="11.756" rx="1.95" transform="translate(139.447 445.244)" fill="#ffc300"/>
        <path id="Star" d="M67.541,101.392l-39.7,20.888,7.582-44.241L3.306,46.707l44.385-6.455L67.541,0l19.85,40.252,44.385,6.455L99.658,78.039l7.582,44.241Z" transform="translate(149.725 47.023)" fill="#ec610a"/>
        <path id="Path_2" data-name="Path 2" d="M0,0S2.884,50.837,16.151,77.881" transform="translate(118.891 96.984)" fill="none" stroke="#ec610a" stroke-linecap="round" stroke-linejoin="round" stroke-miterlimit="10" stroke-width="2.6"/>
        <path id="Path_3" data-name="Path 3" d="M0,0S9.791,15.433,16.151,22.042" transform="translate(146.788 196.907)" fill="none" stroke="#ec610a" stroke-linecap="round" stroke-linejoin="round" stroke-miterlimit="10" stroke-width="2.6"/>
        <rect id="Rectangle_2_Copy_3" data-name="Rectangle 2 Copy 3" width="33.77" height="11.756" rx="1.95" transform="translate(215.798 445.244)" fill="#ffc300"/>
        <rect id="Rectangle_2_Copy_4" data-name="Rectangle 2 Copy 4" width="146.828" height="11.756" rx="1.95" transform="translate(286.275 445.244)" fill="#ffc300"/>
      </g>
      <text id="MPA" transform="translate(328 484)" fill="#294859" font-size="28" font-family="SegoeUI, Segoe UI"><tspan x="0" y="0">MPA</tspan></text>
    </g>
  </g>
</svg>
